<?xml version="1.0" standalone="no"?>
<!DOCTYPE svg PUBLIC "-//W3C//DTD SVG 1.1//EN" "http://www.w3.org/Graphics/SVG/1.1/DTD/svg11.dtd">
<svg xmlns="http://www.w3.org/2000/svg">
<metadata>Generated by Fontastic.me</metadata>
<defs>
<font id="my-info" horiz-adv-x="512">
<font-face font-family="my-info" units-per-em="512" ascent="480" descent="-32"/>
<missing-glyph horiz-adv-x="512" />

<glyph glyph-name="area-code" unicode="&#97;" d="M256 2c-34 0-68 6-99 20-30 12-57 31-81 54-23 24-42 51-54 81-14 31-20 65-20 99 0 34 6 68 20 99 12 30 31 57 54 81 24 23 51 42 81 54 31 14 65 20 99 20 34 0 68-6 99-20 30-12 57-31 81-54 23-24 42-51 54-81 14-31 20-65 20-99 0-34-6-68-20-99-12-30-31-57-54-81-24-23-51-42-81-54-31-14-65-20-99-20z m0 488c-129 0-234-105-234-234 0-129 105-234 234-234 129 0 234 105 234 234 0 129-105 234-234 234z m21-487c-3 0-6 1-8 3-4 5-3 11 1 15 70 62 110 148 110 235 0 87-40 173-110 235-4 4-4 10-1 15 4 4 11 4 15 0 74-66 117-157 117-250 0-93-43-184-117-251-2-1-5-2-7-2z m-42 0c-2 0-5 1-7 2-74 67-117 158-117 251 0 93 43 184 117 250 4 4 11 4 15 0 3-5 3-11-1-15-70-62-110-148-110-235 0-87 40-173 110-235 4-4 4-10 1-15-2-2-5-3-8-3z m21-1c-6 0-10 4-10 10l0 488c0 6 4 10 10 10 6 0 10-4 10-10l0-488c0-6-4-10-10-10z m202 117l-404 0c-6 0-10 5-10 11 0 5 4 10 10 10l404 0c6 0 10-5 10-10 0-6-4-11-10-11z m0 253l-404 0c-6 0-10 5-10 10 0 6 4 11 10 11l404 0c6 0 10-5 10-11 0-5-4-10-10-10z m42-126l-488 0c-6 0-10 4-10 10 0 6 4 10 10 10l488 0c6 0 10-4 10-10 0-6-4-10-10-10z"/>
<glyph glyph-name="arrow-left-down" unicode="&#98;" d="M469 512c-6 0-10-5-10-11l0-172c0-95-80-171-177-171l-216 0 113 117c4 4 4 11 0 15-4 4-11 4-15 0l-127-131c-7-7-7-18 0-26l127-130c2-2 5-3 8-3 2 0 5 1 7 3 4 4 4 11 0 15l-114 118 217 0c27 0 53 5 77 15 24 10 45 24 63 41 18 18 33 39 43 62 10 23 15 49 15 75l0 172c0 6-5 11-11 11z"/>
<glyph glyph-name="arrow-right-up" unicode="&#99;" d="M475 379l-127 130c-4 4-11 4-15 0-4-4-4-11 0-15l114-118-217 0c-27 0-53-5-77-15-24-10-45-24-63-41-18-18-33-39-43-62-10-23-15-49-15-75l0-172c0-6 5-11 11-11 6 0 10 5 10 11l0 172c0 95 80 171 177 171l216 0-113-117c-4-4-4-11 0-15 2-2 5-3 7-3 3 0 6 1 8 3l127 131c7 7 7 18 0 26z"/>
<glyph glyph-name="auction" unicode="&#100;" d="M436-1c-12 0-24 5-33 13l-104 104c-8 9-13 21-13 33 0 10 2 19 8 27l-59 59-29-29c-1-1-2-2-4-3 3-5 4-10 4-17 0-10-3-19-10-27-1-1-3-2-4-4-9-10-21-23-39-23-10 0-20 4-27 11l-116 116c-7 7-11 17-11 27 0 18 13 30 23 39 1 2 3 3 4 4 7 7 16 11 26 11 7 0 13-2 18-5 1 2 2 3 3 5l99 99c2 1 3 2 5 3-3 5-5 11-5 18 0 10 4 19 11 26 1 1 2 3 4 4 9 10 21 23 39 23 10 0 20-4 27-11l116-116c7-7 11-17 11-27 0-18-13-30-23-39-2-1-3-3-4-4-8-7-17-10-27-10-7 0-12 1-17 4-1-2-2-3-3-4l-29-29 59-59c8 6 17 8 27 8 12 0 24-4 33-13l0 0 104-104 0 0c8-9 13-21 13-33 0-12-5-24-13-33l-31-31c-9-8-21-13-33-13z m-201 265l88-87-8-8c-6-6-9-12-9-20 0-7 3-14 8-18l0 0 104-104c4-5 11-8 18-8 7 0 14 3 19 8l30 31c5 4 8 11 8 18 0 7-3 14-8 19l-103 103c-5 5-12 8-19 8-8 0-14-3-20-9l-8-8-87 88 43 43c1 1 1 2 1 3 0 1 0 1-1 2l15 15c1-1 1-2 2-3 8-8 11-11 18-11 5 0 9 2 13 5 1 2 3 3 4 4 8 8 16 15 16 24 0 5-1 9-5 12l-116 117c-3 3-8 5-12 5-9 0-16-8-24-17-1-1-3-3-4-4-4-4-5-8-5-12 0-7 3-11 11-18 0-1 1-2 2-3 0 0 0 0 0 0l-14-15c0 0 0 0 0 0-1 1-2 1-3 1-1 0-1 0-2-1l-99-99c-1-1-1-1-1-2 0-1 0-2 1-3l-15-14c-1 1-2 2-3 2-7 8-11 11-18 11-4 0-8-1-12-5-1-1-3-3-4-4-9-8-17-15-17-24 0-4 2-9 5-12l117-116c3-4 7-5 12-5 9 0 16 8 24 16 1 1 2 3 4 4 3 4 5 8 5 13 0 7-3 10-11 18-1 1-2 1-3 2 0 0 0 0 0 0l15 15c1-1 1-1 2-1 1 0 2 0 3 1z"/>
<glyph glyph-name="back" unicode="&#101;" d="M501 266l-469 0 139 142c4 5 4 12 0 16-4 4-11 4-15 0l-150-154c-8-8-8-20 0-28l150-154c2-2 4-3 7-3 3 0 6 1 8 3 4 4 4 11 0 16l-137 140 467 0c6 0 11 5 11 11 0 6-5 11-11 11z"/>
<glyph glyph-name="book-open" unicode="&#102;" d="M460 480l-177 0c-9 0-18-3-24-8-2-2-4-2-6 0-6 5-15 8-24 8l-177 0c-29 0-52-23-52-51l0-298c0-28 23-52 52-52l123 0c24 0 46-12 58-32l2-3c4-8 12-12 21-12 9 0 17 4 21 12l2 3c12 20 34 32 58 32l123 0c29 0 52 24 52 52l0 298c0 28-23 51-52 51z m-285-379l-123 0c-17 0-31 13-31 30l0 298c0 16 14 30 31 30l177 0c4 0 8-2 11-4 1-2 3-3 5-4l0-384c-16 21-42 34-70 34z m316 30c0-17-14-30-31-30l-123 0c-28 0-54-13-70-34l0 384c2 1 4 2 5 4 3 2 7 4 11 4l177 0c17 0 31-14 31-30z"/>
<glyph glyph-name="briefcase" unicode="&#103;" d="M485 25l-458 0c-15 0-27 12-27 27l0 323c0 15 12 27 27 27l458 0c15 0 27-12 27-27l0-323c0-15-12-27-27-27z m-458 356c-4 0-7-2-7-6l0-323c0-3 3-6 7-6l458 0c4 0 7 3 7 6l0 323c0 4-3 6-7 6z m195-135l-212 0c-6 0-10 4-10 10 0 6 4 10 10 10l212 0c6 0 10-4 10-10 0-6-4-10-10-10z m280 0l-212 0c-6 0-10 4-10 10 0 6 4 10 10 10l212 0c6 0 10-4 10-10 0-6-4-10-10-10z m-161 135c-6 0-10 5-10 11l0 51c0 13-11 23-24 23l-102 0c-13 0-24-10-24-23l0-51c0-6-4-11-10-11-5 0-10 5-10 11l0 51c0 24 20 44 44 44l102 0c24 0 44-20 44-44l0-51c0-6-5-11-10-11z m-85-203c-12 0-23 5-31 13-9 8-13 19-13 31l0 51c0 24 20 44 44 44 12 0 23-4 31-13 0 0 0 0 0 0 9-8 13-19 13-31l0-51c0-24-20-44-44-44z m0 119c-13 0-24-11-24-24l0-51c0-6 3-12 7-17 5-4 11-7 17-7 13 0 24 11 24 24l0 51c0 6-3 12-7 17-5 4-11 7-17 7z"/>
<glyph glyph-name="business" unicode="&#104;" d="M67 333l0-195-4 0c-16 0-28-11-28-26l0-26 442 0 0 26c0 15-12 26-28 26l-4 0 0 195-86 0 0-195-12 0 0 195-85 0 0-195-12 0 0 195-85 0 0-195-12 0 0 195z m118-215l0 194 45 0 0-194 52 0 0 194 45 0 0-194 53 0 0 194 44 0 0-194 25 0c4 0 8-3 8-6l0-6-402 0 0 6c0 3 4 6 8 6l25 0 0 194 44 0 0-194z m71 394l-254-101 0-50 35 0c4-9 14-16 26-16l386 0c12 0 22 7 26 16l35 0 0 50z m233-130l-32 0 0-10c0-4-4-6-8-6l-386 0c-4 0-8 2-8 6l0 10-32 0 0 15 233 93 233-93z m-7-312l-452 0c-15 0-28-12-28-27l0-42 508 0 0 42c0 15-13 27-28 27z m7-49l-466 0 0 22c0 3 3 6 7 6l452 0c4 0 7-3 7-6z"/>
<glyph glyph-name="calendar" unicode="&#105;" d="M484 457l-80 0 0 42c0 6-4 11-10 11-6 0-11-5-11-11l0-42-261 0 0 42c0 6-5 11-11 11-6 0-11-5-11-11l0-42-79 0c-14 0-25-11-25-25l0-410c0-13 11-24 25-24l463 0c13 0 24 11 24 24l0 410c0 14-11 25-24 25z m-463-21l79 0 0-55c0-6 5-11 11-11 6 0 11 5 11 11l0 55 261 0 0-55c0-6 5-11 11-11 6 0 10 5 10 11l0 55 80 0c2 0 3-2 3-4l0-72-469 0 0 72c0 2 1 4 3 4z m463-417l-463 0c-2 0-3 2-3 3l0 317 469 0 0-317c0-1-1-3-3-3z m-327 292l-92 0c-6 0-11-4-11-10l0-90c0-6 5-11 11-11l92 0c6 0 11 5 11 11l0 90c0 6-5 10-11 10z m-11-89l-70 0 0 68 70 0z m153 89l-93 0c-6 0-11-4-11-10l0-90c0-6 5-11 11-11l93 0c6 0 10 5 10 11l0 90c0 6-4 10-10 10z m-11-89l-71 0 0 68 71 0z m152 89l-93 0c-5 0-10-4-10-10l0-90c0-6 5-11 10-11l93 0c6 0 11 5 11 11l0 90c0 6-5 10-11 10z m-11-89l-71 0 0 68 71 0z m-272-53l-92 0c-6 0-11-5-11-11l0-90c0-6 5-10 11-10l92 0c6 0 11 4 11 10l0 90c0 6-5 11-11 11z m-11-90l-70 0 0 68 70 0z m153 90l-93 0c-6 0-11-5-11-11l0-90c0-6 5-10 11-10l93 0c6 0 10 4 10 10l0 90c0 6-4 11-10 11z m-11-90l-71 0 0 68 71 0z m152 90l-93 0c-5 0-10-5-10-11l0-90c0-6 5-10 10-10l93 0c6 0 11 4 11 10l0 90c0 6-5 11-11 11z m-11-90l-71 0 0 68 71 0z"/>
<glyph glyph-name="calendar-check" unicode="&#106;" d="M412 288l-191-180c0 0 0 0 0 0l-94 94c-4 5-11 5-15 1-4-5-4-11 0-16l93-94c1 0 1 0 1 0 4-5 10-7 15-7 5 0 11 2 15 7l191 179c4 4 4 11 0 15-4 5-11 5-15 1z m75 171l-79 0 0 42c0 6-5 11-11 11-6 0-10-5-10-11l0-42-262 0 0 42c0 6-4 11-10 11-6 0-11-5-11-11l0-42-79 0c-14 0-25-11-25-24l0-410c0-14 11-25 25-25l462 0c14 0 25 11 25 25l0 410c0 13-11 24-25 24z m-462-21l79 0 0-55c0-6 5-11 11-11 6 0 10 5 10 11l0 55 262 0 0-55c0-6 4-11 10-11 6 0 11 5 11 11l0 55 79 0c2 0 4-2 4-3l0-73-470 0 0 73c0 1 2 3 4 3z m462-417l-462 0c-2 0-4 2-4 4l0 316 470 0 0-316c0-2-2-4-4-4z"/>
<glyph glyph-name="camera" unicode="&#107;" d="M487 390l-83 0-11 56c-3 14-14 23-28 23l-219 0c-14 0-25-9-27-23l-12-56-82 0c-14 0-25-11-25-25l0-298c0-13 11-24 25-24l462 0c14 0 25 11 25 24l0 298c0 14-11 25-25 25z m4-323c0-1-2-3-4-3l-462 0c-2 0-4 2-4 3l0 298c0 2 2 3 4 3l91 0c5 0 10 4 11 9l13 65c0 0 0 0 0 0 0 4 3 6 6 6l219 0c3 0 6-2 7-6 0 0 0 0 0 0l13-65c1-5 5-9 10-9l92 0c2 0 4-1 4-3z m-235 298c-35 0-68-14-93-39-25-25-38-58-38-93 0-35 13-68 38-93 25-25 58-39 93-39 35 0 68 14 93 39 25 25 38 58 38 93 0 35-13 68-38 93-25 25-58 39-93 39z m0-242c-60 0-110 49-110 110 0 61 50 110 110 110 60 0 110-49 110-110 0-61-50-110-110-110z"/>
<glyph glyph-name="camera-detail" unicode="&#108;" d="M446 450l-190 0c-5 0-9-4-9-9l0-59-37 0 0 33c0 19-15 35-35 35l-85 0c-19 0-35-16-35-35l0-33-46 0c-5 0-9-4-9-10l0-301c0-5 4-9 9-9l494 0c5 0 9 4 9 9l0 313c0 36-30 66-66 66z m-373-35c0 9 8 17 17 17l85 0c10 0 17-8 17-17l0-33-119 0z m-54-335l0 283 237 0c5 0 9 4 9 9l0 60 181 0c26 0 47-22 47-48l0-84-227 0c-6 0-10-4-10-9 0-5 4-9 10-9l227 0 0-202z m127 233c-50 0-91-41-91-91 0-51 41-92 91-92 51 0 92 41 92 92 0 50-41 91-92 91z m0-164c-40 0-73 33-73 73 0 40 33 73 73 73 41 0 73-33 73-73 0-40-32-73-73-73z m0 123c-27 0-50-22-50-50 0-28 23-51 50-51 28 0 51 23 51 51 0 28-23 50-51 50z m0-82c-17 0-31 14-31 32 0 17 14 32 31 32 18 0 32-15 32-32 0-18-14-32-32-32z m260 146l55 0c5 0 9 5 9 10 0 5-4 9-9 9l-55 0c-5 0-9-4-9-9 0-5 4-10 9-10z m0 42l55 0c5 0 9 4 9 9 0 5-4 9-9 9l-55 0c-5 0-9-4-9-9 0-5 4-9 9-9z"/>
<glyph glyph-name="car" unicode="&#109;" d="M493 286c-12 12-27 18-44 19l-23 93c-9 35-42 61-78 61l-184 0c-36 0-69-26-78-61l-23-93c-17-1-32-7-44-19-12-12-19-28-19-45l0-93c0-10 8-18 18-18l13 0 0-21c0-31 25-56 56-56 31 0 57 25 57 56l0 21 224 0 0-21c0-31 26-56 57-56 31 0 56 25 56 56l0 21 13 0c10 0 18 8 18 18l0 93c0 17-7 33-19 45z m-2-135l-31 0 0-42c0-19-16-36-35-36-20 0-36 17-36 36l0 42-266 0 0-42c0-19-16-36-36-36-19 0-35 17-35 36l0 42-31 0 0 90c0 24 19 43 43 43l15 0 27 109c6 26 31 46 58 46l184 0c27 0 52-20 58-46l27-109 15 0c24 0 43-19 43-43z m-125 232l0 0c-2 8-11 14-18 14l-184 0c-7 0-16-6-18-14l-25-99 270 0z m-219-78l18 72c0 0 0 0 0 0l182 0c0 0 0 0 0 0l18-72z m-60-49c-21 0-38-17-38-39 0-21 17-38 38-38 21 0 39 17 39 38 0 22-18 39-39 39z m338 0c-21 0-39-17-39-39 0-21 18-38 39-38 21 0 38 17 38 38 0 22-17 39-38 39z"/>
<glyph glyph-name="cellphone" unicode="&#110;" d="M384 512l-256 0c-14 0-25-11-25-25l0-462c0-14 11-25 25-25l256 0c14 0 25 11 25 25l0 462c0 14-11 25-25 25z m3-487c0-2-1-4-3-4l-256 0c-2 0-3 2-3 4l0 462c0 2 1 4 3 4l256 0c2 0 3-2 3-4z m-106 42c0-14-11-25-25-25-14 0-25 11-25 25 0 13 11 24 25 24 14 0 25-11 25-24z m40 397l-130 0c-6 0-10-4-10-9 0-6 4-10 10-10l130 0c6 0 10 4 10 10 0 5-4 9-10 9z"/>
<glyph glyph-name="check" unicode="&#111;" d="M509 424c-4 4-11 4-15 0l-312-315c-2-1-4-2-5-2-2 0-4 1-6 2l-152 165c-4 5-11 5-16 1-4-4-4-11 0-15l153-166c0 0 0 0 0 0 6-6 13-9 21-9 7 0 14 3 20 9l312 314c4 5 4 11 0 16z"/>
<glyph glyph-name="compass" unicode="&#112;" d="M492 356c-13 30-31 58-55 81-23 24-51 42-81 55-32 13-65 20-100 20-35 0-68-7-100-20-30-13-58-31-81-55-24-23-42-51-55-81-13-32-20-65-20-100 0-35 7-68 20-100 13-30 31-58 55-81 23-24 51-42 81-55 32-13 65-20 100-20 35 0 68 7 100 20 30 13 58 31 81 55 24 23 42 51 55 81 13 32 20 65 20 100 0 35-7 68-20 100z m-236-335c-129 0-235 106-235 235 0 129 106 235 235 235 129 0 235-106 235-235 0-129-106-235-235-235z m141 344c-2 0-3 0-5 0l-175-39c-2-1-4-1-5-3-1 0-2-1-3-2l-108-144c-5-6-6-14-2-20 3-6 9-10 16-10 2 0 3 0 5 0l175 39c2 1 4 1 5 3 1 0 2 1 3 2l108 144c5 6 6 14 2 20-3 6-9 10-16 10z m-109-158l-165-37 101 135 165 37z"/>
<glyph glyph-name="cross" unicode="&#113;" d="M271 256l238 238c4 4 4 11 0 15-4 4-11 4-15 0l-238-238-238 238c-4 4-11 4-15 0-4-4-4-11 0-15l238-238-238-238c-4-4-4-11 0-15 2-2 5-3 8-3 2 0 5 1 7 3l238 238 238-238c2-2 5-3 7-3 3 0 6 1 8 3 4 4 4 11 0 15z"/>
<glyph glyph-name="document" unicode="&#114;" d="M434 512l-356 0c-14 0-25-11-25-25l0-462c0-14 11-25 25-25l243 0c2 0 5 1 7 3l128 127c2 2 3 5 3 8l0 349c0 14-11 25-25 25z m-103-474l0 87c0 2 1 4 3 4l87 0z m-256-13l0 462c0 2 1 4 3 4l356 0c2 0 3-2 3-4l0-337-103 0c-14 0-25-11-25-25l0-104-231 0c-2 0-3 2-3 4z m48 301l271 0c6 0 11 5 11 11l0 104c0 6-5 11-11 11l-271 0c-6 0-11-5-11-11l0-104c0-6 5-11 11-11z m11 105l249 0 0-84-249 0z m-13-175l274 0c6 0 10 5 10 11 0 6-4 11-10 11l-274 0c-6 0-11-5-11-11 0-6 5-11 11-11z m174-55l-174 0c-6 0-11-5-11-11 0-6 5-11 11-11l174 0c6 0 10 5 10 11 0 6-4 11-10 11z m-38-77l-136 0c-6 0-11-5-11-11 0-6 5-10 11-10l136 0c6 0 11 4 11 10 0 6-5 11-11 11z"/>
<glyph glyph-name="download-cloud" unicode="&#115;" d="M475 298c-24 23-56 36-90 36-2 0-4 0-6 0-19 55-72 93-131 93-37 0-72-14-98-40-25-24-39-56-41-90 0 0-1 0-1 0-60 0-108-48-108-106 0-28 11-54 31-74 19-20 45-31 73-32 1 0 1 0 2 0l282 0c1 0 2 0 2 0 33 2 63 15 86 38 23 23 36 54 36 87 0 33-13 64-37 88z m-87-191c-1 0-1 0-2 0l-279 0c0 0-1 0-1 0-47 1-85 38-85 84 0 46 39 84 87 84 3 0 7 0 11-1 3 0 6 1 9 3 2 2 3 5 3 8 0 1 0 2 0 3 0 1 0 2 0 3 0 63 52 114 117 114 53 0 99-35 112-85 2-6 7-9 12-8 5 0 9 1 13 1 58 0 106-47 106-103 0-56-46-102-103-103z m-71 94l-50-48 0 159c0 6-5 11-11 11-6 0-11-5-11-11l0-158-49 47c-4 4-11 4-15 0-4-5-4-11 0-15l66-63c2-2 6-4 10-4 3 0 7 2 10 4l65 63c5 4 5 10 1 15-4 4-11 4-16 0z"/>
<glyph glyph-name="edit" unicode="&#116;" d="M502 437l-65 65c-6 6-15 10-25 10-10 0-20-4-28-12l-346-346c-5-5-8-11-9-17l-29-117c0 0 0 0 0-1-1-5 1-9 4-13 3-4 7-6 12-6 1 0 2 0 3 0 1 0 1 0 1 0l117 29c7 1 12 4 17 9l346 346c15 15 16 39 2 53z m-363-384c-2-1-4-3-6-3 0 0 0 0-1 0l-109-27 27 109c0 0 0 0 0 0 0 3 1 5 3 6l304 304 85-85z m346 347l-27-28-86 86 28 27c3 4 8 6 12 6 4 0 7-2 10-4l65-65c5-6 5-16-2-22z"/>
<glyph glyph-name="nmh" unicode="&#117;" d="M367 353c-3 4-8 6-14 6l-66 0 0 45 3 3 55 0c6 0 10 4 10 10l0 85c0 5-4 10-10 10l-67 0c-31 0-56-10-73-30-15-16-22-39-22-66 0 0 0 0 0 0l-1-57-23 0c-11 0-19-8-19-18l0-68c0-10 8-19 19-19l23 0 0-235c0-10 9-19 19-19l68 0c10 0 18 9 18 19l0 235 49 0c10 0 19 7 21 17l13 68c1 5 0 10-3 14z m-30-78c-1 0-1 0-1 0l-59 0c-6 0-10-5-10-11l0-243-64 0 0 243c0 6-5 11-11 11l-32 0 0 64 32 0c1 0 1 0 2 0 0 0 0 0 0 0 0 0 0 0 1 0 0 0 0 0 0 0 0 0 0 0 1 0 0 0 0 0 0 0 0 1 0 1 0 1 1 0 1 0 1 0 0 0 0 0 0 0 0 0 1 0 1 0 0 0 0 1 0 1 0 0 0 0 1 0 0 0 0 0 0 0 0 0 0 0 0 0 0 1 1 1 1 1 0 0 0 0 0 0 0 0 0 0 0 1 0 0 1 0 1 0 0 0 0 0 0 0 0 0 0 1 0 1 0 0 0 0 0 0 1 0 1 0 1 1 0 0 0 0 0 0 0 0 0 0 0 1 0 0 0 0 0 0 0 0 0 0 0 0 0 1 0 1 1 1 0 0 0 0 0 1 0 0 0 0 0 0 0 0 0 0 0 1 0 0 0 0 0 0l0 67c0 0 0 0 0 0 0 0 0 0 0 0 0 18 6 75 75 75l57 0 0-64-49 0c-3 0-6-1-8-3l-8-8c-2-2-3-5-3-8l0-59c0-6 4-10 10-10l72 0z"/>
<glyph glyph-name="facebook-solid" unicode="&#118;" d="M382 509l-65 0c-74 0-121-49-121-125l0-57-66 0c-6 0-11-5-11-10l0-83c0-6 5-11 11-11l66 0 0-210c0-5 4-10 10-10l86 0c6 0 10 5 10 10l0 210 77 0c6 0 11 5 11 11l0 83c0 2-1 5-3 7-2 2-5 3-8 3l-77 0 0 49c0 23 6 35 36 35l44 0c6 0 11 5 11 10l0 77c0 6-5 11-11 11z"/>
<glyph glyph-name="female" unicode="&#119;" d="M395 204c-29 19-62 33-98 39-4 1-9 2-13 2 12 4 23 9 34 17 18 14 32 33 41 56l0 2 3 1c24 9 37 28 37 28 1 1 1 2 2 3l0 2 2 1c18 11 27 25 28 26 2 3 2 8 0 12-2 3-5 5-9 5-1 0-1 0-1 0l-1 0c0 0-1 0-2 0-6 0-26 1-38 14-9 8-9 16-10 27-1 15-3 33-24 55-11 12-30 18-56 18-14 0-27-2-33-3l-1 0-1 0c-6 1-19 3-33 3-26 0-45-6-56-18-21-22-23-40-24-55-1-11-1-19-10-27-12-13-32-14-38-14-1 0-2 0-2 0l-1 0c0 0 0 0-1 0-4 0-7-2-9-5-2-4-2-9 0-12 1-1 9-13 24-23l2-1 0-3c0-1 1-3 2-5 1 0 15-21 41-29l2-1 1-2c14-36 42-62 75-72-41-5-79-19-111-41-59-43-97-113-97-191 0-2 0-4 1-6 3-4 7-7 12-7l446 0c5 0 9 3 12 7 1 2 1 4 1 6 0 78-38 148-97 191z m-223 128c-1 4-5 7-9 8-7 1-14 4-21 9l-3 2 1 3c0 1 1 2 1 3 0 5-3 10-8 11-2 1-5 3-8 4l-10 5 11 4c9 4 16 9 23 15 14 15 15 29 16 41 1 14 1 25 17 41 7 8 21 12 40 12 15 0 29-3 32-4 0 0 1 0 2 0 1 0 2 0 2 0 3 1 17 4 32 4 19 0 33-4 40-12 16-16 16-27 17-41 1-12 2-26 16-41 7-6 14-11 23-15l11-4-10-5c-3-2-7-3-10-4-4-2-8-6-7-11 0-1 0-1 0-2l1-3-3-2c-6-5-13-8-20-9-4-1-7-4-8-8-13-42-46-70-84-70-38 0-72 28-84 69z m-131-309l0 5c7 114 102 202 215 202 113 0 208-88 215-202l0-5z"/>
<glyph glyph-name="flag" unicode="&#120;" d="M452 512l-358 0c0 0 0 0 0 0-2 0-4 0-5 0l-1 0c-31 0-56-25-56-56l0-74c0-17 13-30 30-30l57 0c1 0 3 0 4 0l0-324c0-16 13-28 28-28 2 0 4 0 6 1l140 82c4 2 9 2 13 0l137-82c2-1 3-1 5-1 16 0 28 12 28 27l0 457c0 15-12 28-28 28z m-329-135c0-2-2-4-4-4l-57 0c-5 0-9 4-9 9l0 74c0 19 16 35 35 35l1 0c19 0 34-16 34-35l0-79z m336-350c0-2-2-4-4-5l-134 79c-11 7-24 7-35 0l-137-79c-2 1-4 3-4 5l0 385c0 2 0 3-1 4l0 40c0 13-4 25-11 34l319 0c4 0 7-2 7-6z"/>
<glyph glyph-name="forward" unicode="&#121;" d="M492 356c-13 30-31 58-55 81-23 24-51 42-81 55-32 13-65 20-100 20-35 0-68-7-100-20-30-13-58-31-81-55-24-23-42-51-55-81-13-32-20-65-20-100 0-35 7-68 20-100 13-30 31-58 55-81 23-24 51-42 81-55 32-13 65-20 100-20 35 0 68 7 100 20 30 13 58 31 81 55 24 23 42 51 55 81 13 32 20 65 20 100 0 35-7 68-20 100z m-236-335c-129 0-235 106-235 235 0 129 106 235 235 235 129 0 235-106 235-235 0-129-106-235-235-235z m110 332c-10 0-18-8-18-17l0-70-97 84c-5 5-14 1-14-6l0-76-95 82c-6 5-14 1-14-6l0-176c0-7 8-11 14-6l95 82 0-76c0-7 9-11 14-6l97 84 0-70c0-9 8-17 18-17 10 0 18 8 18 17l0 160c0 9-8 17-18 17z"/>
<glyph glyph-name="gear" unicode="&#122;" d="M503 289c-5 6-13 10-21 11l-43 3c-5 0-9 3-10 8-3 9-7 19-11 27-3 5-2 10 1 13l28 33c11 13 11 32-1 45l-16 16c-7 6-15 9-24 9-8 0-15-2-21-8l-32-27c-3-2-5-3-8-3-2 0-4 1-5 2-9 4-19 9-29 12-5 1-8 5-8 10l-3 42c-1 8-5 16-11 21-6 6-14 9-22 9l-23 0c-17 0-32-13-33-30l-3-41c0-5-3-9-8-10-10-3-20-7-29-12-2-1-4-2-6-2-2 0-5 1-7 3l-31 26c-6 6-13 8-21 8-9 0-17-3-24-9l-16-16c-12-13-12-32-1-45l25-30c4-4 4-9 2-13-5-10-10-20-13-30-1-5-5-8-10-8l-39-3c-8-1-16-5-21-11-6-6-9-14-9-22l0-23c0-17 13-32 30-33l39-3c5 0 9-3 10-8 3-10 8-21 13-31 2-4 2-9-1-12l-25-30c-6-6-9-14-8-23 0-8 3-16 9-22l16-16c7-6 15-9 24-9 8 0 15 3 21 8l30 26c2 1 5 2 7 2 2 0 4 0 6-1 9-5 19-9 29-12 5-1 8-5 8-10l3-40c1-17 16-30 33-30l23 0c8 0 16 3 22 9 6 5 10 13 11 21l3 41c0 5 3 9 8 10 10 3 19 7 29 12 1 1 3 2 5 2 3 0 5-1 7-3l32-27c6-5 13-8 21-8 9 0 17 3 24 9l16 16c6 6 9 14 9 22 1 9-2 17-8 23l-27 33c-3 3-4 8-2 12 5 9 9 18 12 28 1 5 5 8 10 8l43 3c17 1 30 16 30 33l0 23c0 8-3 16-9 22z m-12-45c0-6-5-11-11-11l-43-4c-13-1-25-10-29-22-2-9-6-17-10-25-6-12-4-26 4-36l28-33c4-4 4-11-1-15l-16-16c-2-3-5-4-8-4-2 0-5 1-7 3l-31 27c-6 5-14 8-22 8-5 0-11-1-15-4-9-4-17-8-26-11-13-4-22-15-23-28l-3-41c0-6-5-11-11-11l-23 0c-6 0-11 5-11 11l-3 40c-1 13-10 25-23 29-9 2-18 6-26 10-5 3-10 4-16 4-7 0-15-3-21-8l-30-26c-2-2-5-3-7-3-3 0-6 1-8 4l-16 16c-5 4-5 11-1 15l25 30c9 10 10 24 4 36-5 9-8 18-11 28-4 13-16 22-29 23l-39 3c-6 0-11 5-11 11l0 23c0 6 5 11 11 11l39 3c13 1 25 10 29 23 3 9 6 18 11 27 6 12 5 27-4 37l-26 30c-4 4-4 11 1 15l16 16c2 3 5 4 8 4 3 0 5-1 7-3l31-26c6-5 14-8 21-8 6 0 11 1 15 4 9 4 18 7 26 10 14 4 23 16 24 29l3 41c0 6 5 11 11 11l23 0c6 0 11-5 11-11l3-42c1-13 10-25 23-29 9-3 18-6 26-11 4-2 10-3 15-3 8 0 16 2 22 7l32 28c2 2 4 3 7 3 3 0 6-1 8-4l16-16c5-4 5-11 1-15l-28-33c-9-10-11-24-5-36 4-8 8-16 10-25 4-12 16-21 29-23l43-3c6 0 11-5 11-11z m-235 112c-55 0-100-45-100-100 0-55 45-100 100-100 55 0 100 45 100 100 0 55-45 100-100 100z m0-179c-43 0-79 36-79 79 0 43 36 79 79 79 43 0 79-36 79-79 0-43-36-79-79-79z"/>
<glyph glyph-name="gift" unicode="&#65;" d="M506 372c-4 4-10 6-17 6l-77 0c0 1 1 1 2 2 22 17 34 40 34 65 0 29-13 42-25 47-12 7-27 7-36 7l0 0c-11 0-33-3-61-25-24-19-46-47-66-84-20 37-42 65-66 84-28 22-50 25-61 25l0 0c-9 0-24 0-37-7-11-5-24-18-24-47 0-25 12-48 34-65 1-1 2-1 2-2l-81 0c-14 0-27-12-27-26l0-79c0-5 5-10 10-10l16 0 0-222c0-15 12-28 28-28 0 0 0 0 0 0l201 0c0 0 1 0 1 0 0 0 1 0 1 0l204 0c8 0 14 4 19 9 4 5 6 12 6 19l0 222 16 0c5 0 10 5 10 10l0 81c0 8-2 13-6 18z m-119 106l0 0c8 0 19 0 27-4 6-3 13-9 13-29 0-44-48-67-74-67l-76 0c51 95 100 100 110 100z m-295-33c0 20 8 26 14 29 8 4 19 4 27 4l0 0c10 0 59-5 110-100l-76 0c-26 0-75 23-75 67z m-71-93c0 3 3 6 6 6l219 0 0-75-225 0z m33-318c-4 0-8 3-8 7l0 222 200 0 0-229z m412 7c0-2 0-7-5-7l-195 0 0 229 200 0z m25 242l-225 0 0 75 223 0c1 0 2 0 2-1 0 0 0-1 0-3z"/>
<glyph glyph-name="heart" unicode="&#66;" d="M256 32c-11 0-22 3-32 9-45 27-92 59-134 99-24 23-43 48-58 73-17 29-27 59-31 90-5 45 8 91 36 125 26 31 61 49 100 52 3 0 7 0 10 0 23 0 46-6 67-16 16-9 30-20 42-34 12 14 26 25 42 34 21 10 44 16 67 16 3 0 7 0 10 0 39-3 74-21 100-52 28-34 41-80 36-125-4-31-14-61-31-90-15-25-34-50-58-73-42-40-89-72-134-99-10-6-21-9-32-9z m-109 427c-3 0-6-1-9-1-32-2-62-18-84-44-25-30-36-69-31-109 15-125 148-207 213-246 6-4 13-6 20-6 7 0 14 2 20 6 65 39 198 121 213 246 5 40-6 79-31 109-22 26-52 42-84 44-3 0-6 1-9 1-39 0-77-20-100-52l-9-12-9 12c-23 32-61 52-100 52z"/>
<glyph glyph-name="house" unicode="&#67;" d="M442 1l-93 0c-10 0-19 8-19 19l0 158-148 0 0-158c0-11-9-19-19-19l-93 0c-10 0-18 8-18 19l0 267c0 5 4 10 10 10 6 0 10-5 10-10l0-265 89 0 0 158c0 10 9 19 19 19l152 0c10 0 19-9 19-19l0-158 89 0 0 265c0 5 4 10 10 10 6 0 10-5 10-10l0-267c0-11-8-19-18-19z m59 219c-3 0-6 2-8 4l-237 261-237-261c-4-4-10-5-15-1-4 4-4 10 0 15l244 270c2 2 5 3 8 3 3 0 6-1 8-3l244-270c4-5 4-11 0-15-2-2-5-3-7-3z"/>
<glyph glyph-name="left" unicode="&#68;" d="M363 0c-3 0-6 1-8 4l-210 235c-9 10-9 24 0 34l210 235c4 5 10 5 15 1 4-4 5-10 1-15l-210-235c-1-2-1-4 0-6l210-235c4-5 3-11-1-15-2-2-5-3-7-3z"/>
<glyph glyph-name="link" unicode="&#69;" d="M171 161c-2 0-5 1-7 3-4 4-4 10 0 14l178 178c4 4 10 4 14 0 4-4 4-10 0-14l-178-178c-2-2-4-3-7-3z m-62-161c-29 0-56 11-77 32-42 42-42 111 0 154l48 48c21 21 48 32 77 32l31 0c6 0 10-4 10-10 0-6-4-10-10-10l-31 0c-23 0-45-9-62-26l-49-49c-34-34-34-90 0-125 17-16 39-26 63-26 24 0 46 10 62 26l49 49c17 17 26 39 26 62l0 31c0 6 4 10 10 10 6 0 10-4 10-10l0-31c0-29-11-56-32-77l-48-48c-21-21-48-32-77-32z m246 246l-31 0c-6 0-10 4-10 10 0 6 4 10 10 10l31 0c23 0 45 9 62 26l49 49c16 16 26 38 26 62 0 24-10 46-26 63-35 34-91 34-125 0l-49-49c-17-17-26-39-26-62l0-31c0-6-4-10-10-10-6 0-10 4-10 10l0 31c0 29 11 56 32 77l48 48c43 42 112 42 154 0 21-21 32-48 32-77 0-29-11-56-32-77l-48-48c-21-21-48-32-77-32z"/>
<glyph glyph-name="load-left" unicode="&#70;" d="M502 323c-9 30-23 57-43 81-19 23-43 42-69 56-27 15-55 24-85 27-31 3-62 0-92-9-44-13-83-39-113-75-24-30-40-64-47-100l-32 101c-2 5-8 9-14 7-5-2-8-8-7-14l41-128c1-5 4-8 9-10 1-1 3-1 5-1 3 0 5 1 8 2l116 68c5 3 7 10 4 15-3 5-10 7-15 4l-96-56c14 79 70 143 147 167 111 33 229-30 263-141 33-111-30-229-141-263-81-24-169 2-223 68l-17-14c29-35 67-60 110-74 23-7 46-10 69-10 22 0 45 3 67 10 30 9 57 24 81 43 23 19 42 43 56 69 15 27 24 55 27 85 3 31 0 62-9 92z"/>
<glyph glyph-name="load-right" unicode="&#71;" d="M512 115l-41 128c-1 5-4 8-9 10-4 2-9 1-13-1l-116-68c-5-3-7-10-4-15 3-5 10-7 15-4l96 56c-14-79-70-143-147-167-54-16-111-10-161 17-49 26-85 70-102 124-33 111 30 229 141 263 81 24 169-2 223-68l17 14c-29 35-67 60-110 74-44 13-91 14-136 0-30-9-57-24-81-43-23-20-42-43-56-69-15-27-24-55-27-85-3-31 0-62 9-92 9-30 23-57 43-81 19-23 43-42 69-56 27-15 55-24 85-27 8-1 17-1 25-1 23 0 45 3 67 10 44 13 83 39 113 75 24 30 40 64 47 100l32-101c2-4 6-7 10-7 1 0 2 0 4 0 5 2 8 8 7 14z"/>
<glyph glyph-name="location" unicode="&#72;" d="M451 386c-11 24-26 46-45 65-20 19-42 34-68 45-26 11-53 16-82 16-29 0-56-5-82-16-26-11-48-26-68-45-19-19-34-41-45-65-11-26-17-53-17-81 0-29 7-56 22-85 14-26 32-49 48-69 32-40 130-143 134-148 2-2 5-3 8-3 0 0 0 0 0 0 3 0 6 1 8 3 4 4 99 104 135 149 35 44 69 92 69 153 0 28-6 55-17 81z m-69-221c-29-37-102-114-126-139-24 26-99 106-125 139-35 43-65 86-65 140 0 102 85 186 190 186 105 0 190-84 190-186 0-54-31-99-64-140z m-126 235c-50 0-90-40-90-90 0-49 40-90 90-90 50 0 90 41 90 90 0 50-40 90-90 90z m0-158c-38 0-68 31-68 68 0 38 30 69 68 69 38 0 68-31 68-69 0-37-30-68-68-68z"/>
<glyph glyph-name="lock-closed" unicode="&#73;" d="M442 0l-372 0c-15 0-27 13-27 28l0 287c0 15 12 27 27 27l372 0c15 0 27-12 27-27l0-287c0-15-12-28-27-28z m-372 322c-4 0-7-3-7-7l0-287c0-4 3-7 7-7l372 0c4 0 7 3 7 7l0 287c0 4-3 7-7 7z m186-152c-20 0-36 16-36 35 0 20 16 36 36 36 20 0 36-16 36-36 0-19-16-35-36-35z m0 50c-8 0-15-6-15-15 0-8 7-15 15-15 8 0 15 7 15 15 0 9-7 15-15 15z m0-118c-6 0-10 5-10 10l0 68c0 6 4 10 10 10 6 0 10-4 10-10l0-68c0-5-4-10-10-10z m118 220c-5 0-10 4-10 10l0 51c0 6 5 10 10 10 6 0 11-4 11-10l0-51c0-6-5-10-11-10z m-236 0c-6 0-11 4-11 10l0 51c0 6 5 10 11 10 5 0 10-4 10-10l0-51c0-6-5-10-10-10z m236 51c-5 0-10 4-10 10 0 59-48 108-108 108-60 0-108-49-108-108 0-6-5-10-10-10-6 0-11 4-11 10 0 34 14 67 38 91 24 24 57 37 91 37 34 0 67-13 91-37 24-24 38-57 38-91 0-6-5-10-11-10z"/>
<glyph glyph-name="lock-open" unicode="&#74;" d="M442 1l-372 0c-15 0-27 12-27 27l0 287c0 15 12 27 27 27l372 0c15 0 27-12 27-27l0-287c0-15-12-27-27-27z m-372 321c-4 0-7-3-7-7l0-287c0-4 3-7 7-7l372 0c4 0 7 3 7 7l0 287c0 4-3 7-7 7z m186-152c-20 0-36 16-36 35 0 20 16 36 36 36 20 0 36-16 36-36 0-19-16-35-36-35z m0 50c-8 0-15-6-15-15 0-8 7-15 15-15 8 0 15 7 15 15 0 9-7 15-15 15z m0-118c-6 0-10 5-10 10l0 68c0 6 4 10 10 10 6 0 10-4 10-10l0-68c0-5-4-10-10-10z m-108 220c-4 0-8 2-9 7l-4 10c-12 32-10 67 4 98 15 31 41 55 73 67 32 11 67 10 98-5 32-14 55-40 67-72 0 0 0-1 0-1l7-23c2-6-1-11-7-13-5-2-11 1-12 7l-7 23c-21 56-83 85-139 64-27-9-49-29-61-56-12-26-13-55-4-82l4-10c2-6-1-12-6-14-1 0-2 0-4 0z"/>
<glyph glyph-name="log-out" unicode="&#75;" d="M358 128c-6 0-11-5-11-11l0-92c0-2-1-4-1-4l-323 0c0 0-2 2-2 4l0 462c0 2 2 4 2 4l323 0c0 0 1-2 1-4l0-87c0-6 5-10 11-10 6 0 11 4 11 10l0 87c0 14-11 25-23 25l-323 0c-13 0-23-11-23-25l0-462c0-14 10-25 23-25l323 0c12 0 23 11 23 25l0 92c0 6-5 11-11 11z m154 128c0 2 0 3-1 4 0 3-2 5-3 7l-83 103c-3 5-10 6-15 2-4-4-5-11-1-15l71-90-345 0c-6 0-11-5-11-11 0-6 5-11 11-11l345 0-71-90c-4-4-3-11 1-15 2-1 5-2 7-2 3 0 6 1 8 4l83 103c1 2 3 4 3 6 1 2 1 3 1 5z"/>
<glyph glyph-name="nmh-mail-closed" unicode="&#76;" d="M487 437l-462 0c-14 0-25-11-25-24l0-314c0-2 0-4 1-5 1-7 5-13 11-16 4-2 8-3 13-3l462 0c5 0 9 1 12 3 6 3 10 8 12 14 1 2 1 5 1 7l0 314c0 13-11 24-25 24z m-170-171l174 100 0-254z m-296 147c0 1 2 3 4 3l462 0c2 0 4-2 4-3l0-22-191-110-17-10c-1 0-2-1-3-1-16-9-34-9-50 0-1 0-2 1-3 1l-17 10-189 108z m0-49l172-98-172-153z m14-268l178 158 4-2c12-7 25-10 38-10 13 0 26 3 39 10l4 3 178-159z"/>
<glyph glyph-name="nmh-male" unicode="&#77;" d="M317 241c43 27 70 79 70 127 0 68-56 144-131 144-75 0-131-76-131-144 0-48 27-100 70-127-101-27-175-119-175-228 0-7 6-13 13-13l446 0c7 0 13 6 13 13 0 109-74 201-175 228z m-136 41c-23 24-35 55-35 88 0 32 12 64 35 88 22 22 49 35 75 35 26 0 53-13 75-35 23-24 35-56 35-88 0-33-12-64-35-88-22-23-49-36-75-36-26 0-53 13-75 36z m-140-259l0 5c7 114 102 202 215 202 113 0 208-88 215-202l0-5z m221 276c6-7 15-18 35-18 15 0 27 8 33 23 4 10 5 19 5 20 0 3-2 7-4 8-3 2-6 3-10 2-2 0-4-1-6-1-6 0-11 4-17 11-6 7-13 14-24 14-6 0-14-2-18-4-4 2-12 4-18 4-11 0-18-7-24-14-6-7-11-11-17-11-2 0-4 1-6 1-4 1-7 0-10-2-2-1-4-5-4-8 0-1 1-10 5-20 6-15 18-23 33-23 20 0 29 11 35 18 4 5 5 6 6 6 1 0 2-1 6-6z m-28 13c-5-6-9-10-19-10-5 0-10 1-14 9 0 1-1 1-1 2 14 1 23 10 29 17 3 4 7 8 9 8 4 0 11-3 14-4 2-1 6-1 8 0 3 1 10 4 14 4 2 0 6-4 9-8 6-7 15-16 29-17 0-1 0-1-1-1-3-9-9-10-14-10-10 0-14 4-19 10-4 6-10 13-22 13-12 0-18-7-22-13z"/>
<glyph glyph-name="menu-dot" unicode="&#78;" d="M311 456c0-30-25-55-55-55-30 0-55 25-55 55 0 30 25 55 55 55 30 0 55-25 55-55z m0-200c0-30-25-55-55-55-30 0-55 25-55 55 0 30 25 55 55 55 30 0 55-25 55-55z m0-200c0-30-25-55-55-55-30 0-55 25-55 55 0 30 25 55 55 55 30 0 55-25 55-55z"/>
<glyph glyph-name="menu-line" unicode="&#79;" d="M16 379l480 0c6 0 11 4 11 10 0 6-5 11-11 11l-480 0c-6 0-11-5-11-11 0-6 5-10 11-10z m480-112l-480 0c-6 0-11-5-11-11 0-6 5-11 11-11l480 0c6 0 11 5 11 11 0 6-5 11-11 11z m0-134l-480 0c-6 0-11-4-11-10 0-6 5-11 11-11l480 0c6 0 11 5 11 11 0 6-5 10-11 10z"/>
<glyph glyph-name="money-folded" unicode="&#80;" d="M86 98l0 17c22 5 38 25 38 49 0 23-16 43-38 48l0 58c10-5 18-15 18-27 0-6 4-10 10-10 6 0 10 4 10 10 0 23-16 43-38 48l0 18c0 6-4 11-10 11-6 0-10-5-10-11l0-17c-23-5-40-25-40-49 0-24 17-45 40-49l0-58c-11 4-19 15-19 28 0 5-5 10-11 10-5 0-10-5-10-10 0-24 17-45 40-49l0-17c0-5 4-10 10-10 6 0 10 5 10 10z m18 66c0-12-8-23-18-27l0 54c10-5 18-15 18-27z m-57 79c0 13 8 23 19 27l0-55c-11 4-19 15-19 28z m454 155l-68 0-12 96c0 3-2 6-4 8-3 1-6 2-9 1l-400-105c0 0 0 0 0 0 0 0-1-1-1-1 0 0 0 0 0 0 0 0-1 0-1 0 0 0 0 0 0 0 0 0 0 0-1 0 0 0 0-1 0-1 0 0 0 0 0 0-1 0-1 0-1 0 0 0 0 0 0-1 0 0 0 0-1 0 0 0 0 0 0 0 0 0 0 0 0-1 0 0 0 0-1 0 0 0 0 0 0 0 0-1 0-1 0-1 0 0 0 0 0 0 0 0-1-1-1-1 0 0 0 0 0 0 0 0 0 0 0-1 0 0 0 0 0 0 0 0 0 0 0 0 0-1 0-1 0-1 0 0 0 0 0 0-1-1-1-1-1-1 0 0 0 0 0 0 0-1 0-1 0-1 0 0 0 0 0 0l0-314c0 0 0 0 0 0l0-19c0-26 21-46 46-46l455 0c6 0 11 4 11 10l0 369c0 5-5 10-11 10z m-10-118c-50 5-90 46-95 98l95 0z m-79 118l-322 0 312 82z m-391-72c17 8 35 12 54 12 73 0 132-60 132-135 0-74-59-134-132-134-19 0-37 4-54 11z m0-271l0 3c17-7 35-10 54-10 41 0 79 16 108 46 29 29 45 68 45 109 0 42-16 81-45 110-29 29-67 45-108 45-19 0-37-3-54-10l0 30 354 0c3-31 15-59 37-81 21-22 49-35 79-38l0-99c-30-2-58-15-79-37-24-24-37-57-37-91 0-1 0-2 0-3l-329 0c-14 0-25 11-25 26z m374-26c0 1 0 2 0 3 0 56 42 103 96 108l0-111z"/>
<glyph glyph-name="nmh-1" unicode="&#81;" d="M512 483c0 9-4 17-11 23-6 5-15 7-24 6l-296-60c-14-3-24-15-24-29l0-271c-16 20-40 32-67 32-50 0-90-42-90-92 0-51 40-92 90-92 49 0 90 41 90 92 0 4-1 9-1 13l0 200 312 68 0-171c-17 20-41 33-69 33-49 0-90-42-90-92 0-51 41-92 90-92 50 0 90 41 90 92 0 1 0 2 0 3 0 0 0 1 0 2z m-422-462c-38 0-69 32-69 71 0 39 31 70 69 70 34 0 62-25 67-59l0-22c0 0 0 0 0-1-5-33-33-59-67-59z m332 51c-38 0-68 32-68 71 0 38 30 70 68 70 38 0 68-32 68-70 0-39-30-71-68-71z m-243 255l0 96c0 4 2 7 6 8l297 59c3 1 5 0 6-1 1-1 3-3 3-6l0-88z"/>
<glyph glyph-name="newspaper" unicode="&#82;" d="M482 334l-57 0c-1 0-3 0-4-1l0 151c0 16-13 28-28 28l-365 0c-16 0-28-12-28-28l0-456c0-16 12-28 28-28l422 0c0 0 0 0 0 0 2 0 4 0 6 0l0 0c31 0 56 25 56 56l0 247c0 17-13 31-30 31z m-461-306l0 456c0 4 3 7 7 7l365 0c3 0 6-3 6-7l0-307c0-1 0-2 1-3l0-118c0-13 4-25 11-34l-383 0c-4 0-7 2-7 6z m470 28c0-19-16-35-35-35l0 0c-19 0-35 16-35 35l0 252c0 2 2 4 4 4l57 0c5 0 9-4 9-9z m-436 258l303 0c6 0 11 5 11 11l0 114c0 6-5 11-11 11l-303 0c-6 0-10-5-10-11l0-114c0-6 4-11 10-11z m11 114l281 0 0-93-281 0z m293-190c6 0 11 5 11 11 0 6-5 11-11 11l-306 0c-6 0-11-5-11-11 0-6 5-11 11-11z m4-62l-306 0c-6 0-10-5-10-11 0-6 4-11 10-11l306 0c6 0 11 5 11 11 0 6-5 11-11 11z m-153-84l-153 0c-6 0-10-5-10-11 0-6 4-10 10-10l153 0c6 0 11 4 11 10 0 6-5 11-11 11z"/>
<glyph glyph-name="nja" unicode="&#83;" d="M222 152c-2-2-4-3-6-5-9-6-18-11-29-14-8-1-17-1-25 2-2 1-5 2-7 4-4 3-6 7-6 12-1 9 0 17 2 25 4 13 9 26 15 38 9 15 17 31 26 46 4 8 7 15 11 23 1 2 2 5 3 7 1 5-2 7-7 6-2-1-4-2-6-3-4-3-8-7-11-11-6-7-10-15-16-23-6-10-11-20-16-31-14-28-27-57-41-85 0-1-1-1-1-2-16 2-32 5-49 8 31 64 62 129 94 194 16-3 32-5 48-8-5-10-10-20-14-31 0 1 1 1 2 2 7 7 14 12 23 17 7 5 15 7 24 6 4 0 9-1 13-3 6-3 9-8 10-15 1-9-1-17-4-25-4-13-10-26-17-38-8-14-16-28-23-42-5-8-10-17-13-27-1-2-2-5-2-8 0-3 2-5 6-6 1 0 3 0 5 0 7 1 13 3 18 7 3 3 5 6 7 9 18 38 37 76 55 113 3 8 7 15 11 22 0 1 0 2 1 3 16-3 32-5 48-8-1-1-1-1-1-2-14-28-27-56-41-84-11-24-23-48-34-73-7-13-14-27-21-41-6-12-13-24-22-35-7-9-16-18-26-25-9-6-18-11-29-13-8-2-17-2-25 0-6 0-11 2-16 4-10 4-18 10-24 18-7 11-9 23-5 35 2 6 5 11 9 16 5 7 12 11 20 13 9 2 17 2 26-1 7-3 13-8 17-16 2-5 3-10 1-15-1-4-3-8-5-11-1 1-2 1-2 2-3 1-5 3-8 4-3 2-7 2-11 1-10-5-15-15-12-26 1-3 3-6 6-7 6-4 13-4 19 0 3 3 6 6 9 9 5 6 9 13 13 20 7 13 13 26 19 39 5 9 9 17 13 26 0 1 1 2 1 2 0 0 0 1 0 1z m283 130c-3-8-7-15-10-22-17-34-34-69-50-103-3-5-4-10-6-16-1-2-2-5-1-7 1-4 3-6 7-7 2-1 5 0 7 0 7 2 13 5 18 11 3 2 5 5 7 8 1 0 2 0 4 0 1-1 2-1 3-1 0 0 0-1 0-1-9-16-21-29-37-39-8-5-17-9-26-10-10-1-20 0-28 7-5 3-7 8-8 14 0 3 0 6 0 10 0 0 0 1 0 1-1 0-2-1-3-1-11-8-22-14-35-17-8-2-15-2-23-1-11 2-18 10-20 20-1 8-1 15 1 23 3 13 8 26 14 38 9 17 18 34 31 49 21 25 47 43 79 52 13 4 27 5 40 4 12-1 23-4 34-11 0 0 1-1 2-1z m-59-14c-3 2-7 3-10 2-5 0-10-2-14-6-4-3-8-7-12-10-8-9-14-18-20-27-9-14-18-28-24-44-3-8-5-16-6-24-1-3-1-7 0-10 1-3 3-6 7-6 2 0 4 0 6 1 6 1 11 4 16 7 1 0 1 1 2 1 2 6 5 11 7 17 13 26 25 52 37 77 4 7 7 15 11 22z m-360-8c-10 2-20 3-29 5 0 0 0 0 0 0 0 0 0 0 0 0 31 70 63 139 95 209 0 0 0 1 0 1 18-3 36-5 54-8-40-69-80-138-120-207z m-28-81c1-17-14-26-25-26-15 0-26 11-26 26 0 14 11 26 25 26 15 0 26-12 26-26z"/>
<glyph glyph-name="passport" unicode="&#84;" d="M421 512l-330 0c-5 0-9-3-10-8 0-1 0-1 0-2l0-428c0-4 3-8 7-9l287-65c0 0 1 0 2 0 2 0 4 1 6 2 2 2 3 5 3 8l0 29 35 0c6 0 10 4 10 10l0 453c0 6-4 10-10 10z m-54-491l-267 61 0 408 267-60z m45 37l-26 0 0 379c0 5-3 9-7 10l-205 46 238 0z m-251 243l1 0c2-2 4-4 5-6 0-2 0-3 0-3l-1-1c-4-8-4-16 1-24 3-6 9-11 15-13l0-88c0-4 2-7 5-9 3-1 7-1 10 1l32 24 37-39c2-2 4-3 7-3 1 0 2 0 3 0 4 2 6 5 6 9l0 73c0 5-4 9-9 9-5 0-10-4-10-9l0-49-26 28c-3 4-9 4-13 1l-23-17 0 68c3-1 6-3 7-7l1-1c4-12 15-20 27-20 9 0 16 5 20 13l0 1c1 1 2 1 3 1 1 0 3 0 5-1l1-1c5-3 10-5 15-5 8 0 15 4 19 10 4 6 4 14 1 22l-1 1c-1 2-1 4 0 4 0 1 0 1 2 1l1 1c9 1 17 7 18 16 2 11-4 23-14 29l-2 1c-2 1-4 3-5 6 0 1 0 2 0 3l1 1c4 7 4 16-1 24-5 9-15 14-24 14-2 0-4 0-6 0l-1 0c-1-1-1-1-1-1-4 0-8 3-9 7l-1 1c-4 12-15 20-27 20-9 0-16-5-20-13l0-1c-1-1-2-1-3-1-1 0-3 0-5 2l-1 0c-5 3-10 5-15 5-8 0-15-3-19-10-4-6-4-14-1-22l1-1c1-2 1-3 0-4 0 0 0-1-2-1l-1 0c-9-1-16-8-18-17-2-11 4-23 15-29z m3 25c1 1 1 2 3 2l1 0c7 1 12 5 16 11 3 6 3 14 0 21l0 1c-1 2-1 3-1 4 1 1 2 1 3 1 1 0 3 0 5-2l1 0c5-3 10-5 15-5 9 0 17 5 20 13l1 1c0 0 0 1 2 1 4 0 8-2 9-7l1-1c4-11 15-20 27-20 1 0 3 1 5 1l1 0c1 0 1 0 2 0 3 0 6-2 8-5 0-1 1-3 0-5l0-1c-3-5-4-11-2-17 2-8 7-14 14-18l1-1c5-2 6-6 6-8-1-1-1-1-2-2l-2 0c-7-1-12-4-16-10-3-6-3-14 0-21l0-2c1-1 1-3 1-4-1 0-2-1-3-1-1 0-3 1-5 2l-1 1c-5 3-10 4-15 4-9 0-17-4-20-12l-1-2c0 0 0-1-2-1-3 0-8 3-9 7l-1 1c-4 12-15 20-27 20-1 0-3 0-5-1l-1 0c-1 0-1 0-2 0-2 0-6 2-8 5 0 1-1 3 0 5l0 1c3 5 4 12 2 18-2 7-7 13-14 17l-1 1c-5 2-6 6-6 8z"/>
<glyph glyph-name="nmh-pause" unicode="&#85;" d="M492 356c-13 30-31 58-55 81-23 24-51 42-81 55-32 13-65 20-100 20-35 0-68-7-100-20-30-13-58-31-81-55-24-23-42-51-55-81-13-32-20-65-20-100 0-35 7-68 20-100 13-30 31-58 55-81 23-24 51-42 81-55 32-13 65-20 100-20 35 0 68 7 100 20 30 13 58 31 81 55 24 23 42 51 55 81 13 32 20 65 20 100 0 35-7 68-20 100z m-236-335c-129 0-235 106-235 235 0 129 106 235 235 235 129 0 235-106 235-235 0-129-106-235-235-235z m-69 333l0 0c-10 0-18-8-18-18l0-160c0-10 8-18 18-18l0 0c10 0 18 8 18 18l0 160c0 10-8 18-18 18z m138 0l0 0c-10 0-18-8-18-18l0-160c0-10 8-18 18-18l0 0c10 0 18 8 18 18l0 160c0 10-8 18-18 18z"/>
<glyph glyph-name="nmh-picture" unicode="&#86;" d="M485 461l-458 0c-15 0-27-12-27-27l0-356c0-15 12-27 27-27l458 0c15 0 27 12 27 27l0 356c0 15-12 27-27 27z m-458-20l458 0c3 0 6-3 6-7l0-300-109 112c-4 4-10 4-14 1l-77-62-129 129c-4 4-11 4-15 0l-126-116 0 236c0 4 3 7 6 7z m458-370l-458 0c-3 0-6 3-6 7l0 92 133 123 129-129c3-4 9-4 13-1l78 62 117-121 0-26c0-4-3-7-6-7z m-119 243c15 0 27 12 27 27 0 15-12 27-27 27-15 0-27-12-27-27 0-15 12-27 27-27z m0 33c4 0 7-3 7-6 0-4-3-7-7-7-4 0-7 3-7 7 0 3 3 6 7 6z"/>
<glyph glyph-name="play" unicode="&#87;" d="M492 356c-13 30-31 58-55 81-23 24-51 42-81 55-32 13-65 20-100 20-35 0-68-7-100-20-30-13-58-31-81-55-24-23-42-51-55-81-13-32-20-65-20-100 0-35 7-68 20-100 13-30 31-58 55-81 23-24 51-42 81-55 32-13 65-20 100-20 35 0 68 7 100 20 30 13 58 31 81 55 24 23 42 51 55 81 13 32 20 65 20 100 0 35-7 68-20 100z m-236-335c-129 0-235 106-235 235 0 129 106 235 235 235 129 0 235-106 235-235 0-129-106-235-235-235z m95 249l-144 89c-10 7-24-1-24-14l0-178c0-13 14-21 24-14l144 89c10 7 10 21 0 28z"/>
<glyph glyph-name="nmh-plus" unicode="&#88;" d="M501 267l-234 0 0 234c0 6-5 11-11 11-6 0-11-5-11-11l0-234-234 0c-6 0-11-5-11-11 0-6 5-11 11-11l234 0 0-234c0-6 5-11 11-11 6 0 11 5 11 11l0 234 234 0c6 0 11 5 11 11 0 6-5 11-11 11z"/>
<glyph glyph-name="nmh-pointer" unicode="&#89;" d="M303 0c0 0 0 0-1 0-4 0-8 3-9 8l-61 224-224 61c-5 1-8 5-8 9 0 5 2 9 7 11l490 198c4 2 9 1 12-2 3-3 4-8 2-12l-198-490c-2-4-6-7-10-7z m-259 305l199-54c4-1 7-4 8-8l54-199 177 438z"/>
<glyph glyph-name="random" unicode="&#90;" d="M510 154l-63 54c-4 3-9 1-9-4l0-44-39 0c-42 0-81 19-108 51l-85 102c-31 38-77 60-127 60l-68 0c-6 0-11-5-11-11 0-6 5-11 11-11l68 0c43 0 83-19 111-52l84-102c31-37 77-59 125-59l39 0 0-42c0-5 5-7 9-4l63 54c3 2 3 6 0 8z m-313 87c-5 4-11 4-15-1l-24-29c-27-32-66-51-108-51l-39 0c-6 0-11-5-11-11 0-6 5-11 11-11l39 0c48 0 93 22 125 59l23 29c4 5 4 12-1 15z m64 66c3 0 6 1 8 3 26 29 61 41 112 41l57 0 0-43c0-5 5-7 9-4l63 54c3 2 3 6 0 8l-63 54c-4 3-9 1-9-4l0-43-57 0c-27 0-49-3-68-10-24-8-43-20-60-38-4-5-4-11 1-16 2-1 4-2 7-2z"/>
<glyph glyph-name="restaurant" unicode="&#48;" d="M413 1l-35 0c-11 0-23 4-31 13-9 9-14 20-14 32l0 130-51 0c-10 0-19 8-19 19l0 218c0 27 10 51 29 70 18 18 43 28 69 28l70 0c15 0 28-12 28-28l0-437c0-12-5-23-14-32-8-9-20-13-32-13z m-129 195l70 0 0-150c0-13 11-25 24-25l35 0c14 0 25 12 25 25l0 437c0 4-3 8-7 8l-70 0c-43 0-77-35-77-78z m-115-195l-35 0c-12 0-24 4-32 13-9 9-14 20-14 32l0 206c-21 11-35 32-35 56l0 175c0 16 13 28 28 28 15 0 28-12 28-28l0-113c0-4 3-7 7-7 4 0 7 3 7 7l0 113c0 16 13 28 28 28 15 0 28-12 28-28l0-113c0-4 3-7 7-7 4 0 7 3 7 7l0 113c0 16 13 28 28 28 15 0 28-12 28-28l0-175c0-24-14-45-35-56l0-206c0-12-5-23-14-32-8-9-19-13-31-13z m-88 490c-4 0-7-4-7-8l0-175c0-17 11-33 28-39l7-3 0-220c0-13 11-25 25-25l35 0c13 0 24 12 24 25l0 220 7 3c17 6 28 22 28 39l0 175c0 4-3 8-7 8-4 0-7-4-7-8l0-113c0-16-13-28-28-28-15 0-28 12-28 28l0 113c0 4-3 8-7 8-4 0-7-4-7-8l0-113c0-16-13-28-28-28-15 0-28 12-28 28l0 113c0 4-3 8-7 8z"/>
<glyph glyph-name="rewind" unicode="&#49;" d="M492 356c-13 30-31 58-55 81-23 24-51 42-81 55-32 13-65 20-100 20-35 0-68-7-100-20-30-13-58-31-81-55-24-23-42-51-55-81-13-32-20-65-20-100 0-35 7-68 20-100 13-30 31-58 55-81 23-24 51-42 81-55 32-13 65-20 100-20 35 0 68 7 100 20 30 13 58 31 81 55 24 23 42 51 55 81 13 32 20 65 20 100 0 35-7 68-20 100z m-236-335c-129 0-235 106-235 235 0 129 106 235 235 235 129 0 235-106 235-235 0-129-106-235-235-235z m114 330l-95-83 0 76c0 7-9 11-14 7l-97-85 0 70c0 10-9 18-18 18l-1 0c-9 0-17-8-17-18l0-160c0-10 8-18 17-18l1 0c9 0 18 8 18 18l0 70 97-85c5-4 14 0 14 7l0 76 95-83c6-4 14 0 14 7l0 176c0 7-8 11-14 7z"/>
<glyph glyph-name="right" unicode="&#50;" d="M149 0c-2 0-5 1-7 3-4 4-5 10-1 15l210 235c1 2 1 4 0 6l-210 235c-4 5-3 11 1 15 5 4 11 4 15-1l210-235c9-10 9-24 0-34l-210-235c-2-3-5-4-8-4z"/>
<glyph glyph-name="scan" unicode="&#51;" d="M501 266l-44 0c-1 24-6 48-16 70-10 25-25 47-44 66-19 19-41 34-66 44-22 9-45 15-70 16l0 39c0 6-4 11-10 11-6 0-10-5-10-11l0-39c-24-1-48-7-70-16-25-10-47-25-66-44-19-19-34-41-44-66-10-22-15-46-16-70l-34 0c-6 0-11-5-11-10 0-6 5-11 11-11l34 0c1-24 6-47 16-70 10-24 25-46 44-65 19-19 41-34 66-45 22-9 46-14 70-15l0-39c0-6 4-11 10-11 6 0 10 5 10 11l0 39c25 1 48 6 70 15 25 11 47 26 66 45 19 19 34 41 44 65 10 23 15 46 16 70l44 0c6 0 11 5 11 11 0 5-5 10-11 10z m-64 0l-41 0c-3 35-17 67-42 92-25 25-58 40-93 43l0 40c95-5 170-81 176-175z m-71-21l9 0c-5-60-53-108-114-113l0 14c0 5-4 10-10 10-6 0-10-5-10-10l0-14c-61 5-109 53-114 113l19 0c5 0 10 5 10 11 0 5-5 10-10 10l-19 0c5 61 53 109 114 114l0-14c0-5 4-10 10-10 6 0 10 5 10 10l0 14c61-5 109-53 114-114l-9 0c-5 0-10-5-10-10 0-6 5-11 10-11z m-125 196l0-40c-35-3-68-18-93-43-25-25-39-57-42-92l-40 0c5 94 81 170 175 175z m-175-196l40 0c3-34 17-67 42-92 25-25 58-40 93-42l0-41c-94 5-170 81-175 175z m195-175l0 41c35 2 68 17 93 42 25 25 39 58 42 92l41 0c-6-94-81-170-176-175z m-10 257c-39 0-72-32-72-71 0-40 33-72 72-72 40 0 72 32 72 72 0 39-32 71-72 71z m50-61l-40 0 0 40c20-4 36-20 40-40z m-60 40l0-40-40 0c4 20 20 36 40 40z m-40-61l40 0 0-39c-20 4-36 20-40 39z m60-39l0 39 40 0c-4-19-20-35-40-39z"/>
<glyph glyph-name="search" unicode="&#52;" d="M504 18l-129 127c20 20 35 43 46 68 12 27 17 55 17 84 0 29-5 57-17 84-11 25-26 48-46 68-20 20-43 35-69 46-27 11-55 17-84 17-29 0-58-6-85-17-25-11-48-26-68-46-20-20-36-43-47-68-11-27-17-55-17-84 0-29 6-57 17-84 11-26 27-49 47-68 20-20 43-36 68-46 27-12 56-17 85-17 29 0 57 5 84 17 19 8 37 19 53 32l129-128c3-2 5-3 8-3 3 0 6 1 8 3 4 4 4 11 0 15z m-282 85c-108 0-195 87-195 194 0 107 87 194 195 194 107 0 195-87 195-194 0-107-88-194-195-194z"/>
<glyph glyph-name="share" unicode="&#53;" d="M419 0c-26 0-47 9-65 27-19 19-27 40-27 66 0 6 0 13 2 19l3 12-161 81-8-10c-9-10-20-18-32-23-12-6-25-8-38-8-26 0-48 8-66 27-18 18-27 39-27 65 0 26 9 47 27 65 18 19 40 27 66 27 13 0 26-2 38-8 12-5 23-13 32-23l8-9 161 80-3 12c-2 7-2 13-2 20 0 25 8 46 27 65 18 18 39 27 65 27 26 0 48-9 66-27 18-19 27-40 27-65 0-26-9-48-27-66-18-18-40-27-66-27-13 0-26 3-38 8-12 6-23 14-32 24l-8 10-161-82 3-12c2-6 2-12 2-19 0-6 0-13-2-19l-3-13 161-80 8 10c9 9 20 17 32 23 12 5 25 8 38 8 26 0 48-9 66-27 18-18 27-40 27-65 0-26-9-47-27-66-18-18-40-27-66-27z m0 164c-19 0-36-7-49-21-14-14-21-31-21-50 0-20 7-37 21-51 13-13 30-20 49-20 20 0 36 7 50 20 14 14 21 31 21 51 0 19-7 36-21 50-14 14-30 21-50 21z m-326 163c-20 0-36-7-50-21-14-14-21-30-21-50 0-19 7-36 21-50 14-14 30-21 50-21 19 0 36 7 49 21 14 14 21 31 21 50 0 20-7 36-20 50-14 14-31 21-50 21z m326 163c-19 0-36-7-49-20-14-14-21-31-21-50 0-20 7-37 21-51 13-14 30-21 49-21 20 0 36 7 50 21 14 14 21 31 21 51 0 19-7 36-21 50-14 13-30 20-50 20z"/>
<glyph glyph-name="shopping-trolley" unicode="&#54;" d="M437 118l-215 0c-5 0-10 5-10 11 0 5 5 10 10 10l208 0 58 200-328 0c-5 0-10 5-10 10 0 6 5 11 10 11l342 0c3 0 6-2 8-5 2-2 3-5 2-9l-65-220c-1-5-5-8-10-8z m-181-118c-24 0-44 20-44 44 0 24 20 44 44 44 24 0 44-20 44-44 0-24-20-44-44-44z m0 68c-13 0-24-11-24-24 0-13 11-24 24-24 13 0 24 11 24 24 0 13-11 24-24 24z m144-68c-24 0-44 20-44 44 0 24 20 44 44 44 25 0 44-20 44-44 0-24-19-44-44-44z m0 68c-13 0-23-11-23-24 0-13 10-24 23-24 13 0 24 11 24 24 0 13-11 24-24 24z m-178 50c-4 0-8 3-10 8l-100 357c-1 4-7 9-12 9l-90 0c-6 0-10 4-10 10 0 6 4 10 10 10l90 0c14 0 28-10 32-24l100-356c2-6-1-12-7-13-1 0-2-1-3-1z"/>
<glyph glyph-name="speech" unicode="&#55;" d="M285 32c-57 0-110 20-152 57-9-2-16-4-23-5-11-2-24-3-39-3-31 0-61 4-62 4-4 1-8 4-9 8-1 4 1 9 4 11 1 1 45 35 60 52 4 4 7 9 11 13-12 28-18 57-18 87 0 30 6 60 18 87 12 27 28 51 49 72 21 20 45 36 72 48 28 11 58 17 89 17 30 0 60-6 88-17 27-12 52-28 72-48 21-21 38-45 49-72 12-27 18-57 18-87 0-30-6-60-18-87-11-27-28-51-49-72-20-20-45-36-72-48-28-11-58-17-88-17z m-149 80c2 0 5-1 7-3 38-36 89-56 142-56 113 0 206 91 206 203 0 112-93 203-206 203-114 0-206-91-206-203 0-29 6-57 18-84 2-3 1-8-1-11-5-7-11-13-15-18-10-11-28-27-43-39 10-1 21-2 33-2 14 0 25 1 35 3 8 2 17 4 27 7 1 0 2 0 3 0z"/>
<glyph glyph-name="star-empty" unicode="&#56;" d="M505 291c7 8 9 18 6 28-3 9-11 16-21 17l-144 22c-1 0-2 1-3 3l-64 136c-4 9-13 15-23 15-10 0-19-6-23-15l-64-136c-1-2-2-3-3-3l-144-22c-10-1-18-8-21-17-3-10-1-20 6-28l104-106c2-1 2-3 2-4l-25-150c-1-8 1-16 6-22 5-6 12-9 20-9 4 0 8 1 12 3l128 71c1 0 3 0 4 0l128-71c4-2 8-3 12-3 8 0 15 3 20 9 5 6 7 14 6 22l-25 150c0 1 0 3 2 4z m-127-114l24-150c1-2 0-3-1-4 0-1-2-2-3-2 0 0-1 1-1 1l-129 71c-4 2-8 3-12 3-4 0-8-1-12-3l-129-71c0 0-1-1-1-1-1 0-3 1-3 2-1 1-2 2-1 4l24 150c1 9-1 17-7 23l-104 107c-2 2-2 4-1 5 0 1 1 3 3 3l144 22c8 1 15 7 19 15l64 136c1 2 3 3 4 3 1 0 3-1 4-3l64-136c4-8 11-14 19-15l144-22c2 0 3-2 3-3 1-1 1-3-1-5l-104-107c-6-6-8-14-7-23z"/>
<glyph glyph-name="star-full" unicode="&#57;" d="M505 291c7 8 9 18 6 28-3 9-11 16-21 17l-144 22c-1 0-2 1-3 3l-64 136c-4 9-13 15-23 15-10 0-19-6-23-15l-64-136c-1-2-2-3-3-3l-144-22c-10-1-18-8-21-17-3-10-1-20 6-28l104-106c2-1 2-3 2-4l-25-150c-1-8 1-16 6-22 5-6 12-9 20-9 4 0 8 1 12 3l128 71c1 0 3 0 4 0l128-71c4-2 8-3 12-3 8 0 15 3 20 9 5 6 7 14 6 22l-25 150c0 1 0 3 2 4z m-127-114l24-150c1-2 0-3-1-4 0-1-2-2-3-2 0 0-1 1-1 1l-129 71c-4 2-8 3-12 3-4 0-8-1-12-3l-129-71c0 0-1-1-1-1-1 0-3 1-3 2-1 1-2 2-1 4l24 150c1 9-1 17-7 23l-104 107c-2 2-2 4-1 5 0 1 1 3 3 3l144 22c8 1 15 7 19 15l64 136c1 2 3 3 4 3 1 0 3-1 4-3l64-136c4-8 11-14 19-15l144-22c2 0 3-2 3-3 1-1 1-3-1-5l-104-107c-6-6-8-14-7-23z m91 128l-128 19c-12 2-23 10-29 22l-56 120-56-120c-6-12-17-20-29-22l-128-19 93-96c9-9 13-21 11-34l-22-133 113 62c5 3 12 5 18 5 6 0 13-2 18-5l113-62-22 133c-2 13 2 25 11 34z"/>
<glyph glyph-name="star-half" unicode="&#33;" d="M505 291c7 8 9 18 6 28-3 9-11 16-21 17l-144 22c-1 0-2 1-3 3l-64 136c-4 9-13 15-23 15-10 0-19-6-23-15l-64-136c-1-2-2-3-3-3l-144-22c-10-1-18-8-21-17-3-10-1-20 6-28l104-106c2-1 2-3 2-4l-25-150c-1-8 1-16 6-22 5-6 12-9 20-9 4 0 8 1 12 3l128 71c1 0 3 0 4 0l128-71c4-2 8-3 12-3 8 0 15 3 20 9 5 6 7 14 6 22l-25 150c0 1 0 3 2 4z m-127-114l24-150c1-2 0-3-1-4 0-1-2-2-3-2 0 0-1 1-1 1l-129 71c-4 2-8 3-12 3-4 0-8-1-12-3l-129-71c0 0-1-1-1-1-1 0-3 1-3 2-1 1-2 2-1 4l24 150c1 9-1 17-7 23l-104 107c-2 2-2 4-1 5 0 1 1 3 3 3l144 22c8 1 15 7 19 15l64 136c1 2 3 3 4 3 1 0 3-1 4-3l64-136c4-8 11-14 19-15l144-22c2 0 3-2 3-3 1-1 1-3-1-5l-104-107c-6-6-8-14-7-23z m-207 147l-128-19 93-96c9-9 13-21 11-34l-22-133 113 62c5 3 12 5 18 5l0 357-56-120c-6-12-17-20-29-22z"/>
<glyph glyph-name="star-quater" unicode="&#34;" d="M505 291c7 8 9 18 6 28-3 9-11 16-21 17l-144 22c-1 0-2 1-3 3l-64 136c-4 9-13 15-23 15-10 0-19-6-23-15l-64-136c-1-2-2-3-3-3l-144-22c-10-1-18-8-21-17-3-10-1-20 6-28l104-106c2-1 2-3 2-4l-25-150c-1-8 1-16 6-22 5-6 12-9 20-9 4 0 8 1 12 3l128 71c1 0 3 0 4 0l128-71c4-2 8-3 12-3 8 0 15 3 20 9 5 6 7 14 6 22l-25 150c0 1 0 3 2 4z m-127-114l24-150c1-2 0-3-1-4 0-1-2-2-3-2 0 0-1 1-1 1l-129 71c-4 2-8 3-12 3-4 0-8-1-12-3l-129-71c0 0-1-1-1-1-1 0-3 1-3 2-1 1-2 2-1 4l24 150c1 9-1 17-7 23l-104 107c-2 2-2 4-1 5 0 1 1 3 3 3l144 22c8 1 15 7 19 15l64 136c1 2 3 3 4 3 1 0 3-1 4-3l64-136c4-8 11-14 19-15l144-22c2 0 3-2 3-3 1-1 1-3-1-5l-104-107c-6-6-8-14-7-23z m-335 128l93-96c9-9 13-21 11-34l-22-133 61 33 0 255c-5-3-10-5-15-6z"/>
<glyph glyph-name="star-3-quartar" unicode="&#35;" d="M505 291c7 8 9 18 6 28-3 9-11 16-21 17l-144 22c-1 0-2 1-3 3l-64 136c-4 9-13 15-23 15-10 0-19-6-23-15l-64-136c-1-2-2-3-3-3l-144-22c-10-1-18-8-21-17-3-10-1-20 6-28l104-106c2-1 2-3 2-4l-25-150c-1-8 1-16 6-22 5-6 12-9 20-9 4 0 8 1 12 3l128 71c1 0 3 0 4 0l128-71c4-2 8-3 12-3 8 0 15 3 20 9 5 6 7 14 6 22l-25 150c0 1 0 3 2 4z m-127-114l24-150c1-2 0-3-1-4 0-1-2-2-3-2 0 0-1 1-1 1l-129 71c-4 2-8 3-12 3-4 0-8-1-12-3l-129-71c0 0-1-1-1-1-1 0-3 1-3 2-1 1-2 2-1 4l24 150c1 9-1 17-7 23l-104 107c-2 2-2 4-1 5 0 1 1 3 3 3l144 22c8 1 15 7 19 15l64 136c1 2 3 3 4 3 1 0 3-1 4-3l64-136c4-8 11-14 19-15l144-22c2 0 3-2 3-3 1-1 1-3-1-5l-104-107c-6-6-8-14-7-23z m-66 169l-56 120-56-120c-6-12-17-20-29-22l-128-19 93-96c9-9 13-21 11-34l-22-133 113 62c5 3 12 5 18 5 6 0 13-2 18-5l62-34 0 256c-10 3-19 10-24 20z"/>
<glyph glyph-name="tag" unicode="&#36;" d="M225 0c-8 0-14 3-19 8l-198 198c-5 5-8 11-8 19 0 7 3 13 8 18 0 0 0 0 0 0l261 254c8 9 23 15 35 15l181 0c15 0 27-12 27-27l0-181c0-12-6-27-15-35l-254-261c0 0 0 0 0 0-5-5-11-8-18-8z m-203 229c-1-1-1-3-1-4 0-2 0-4 1-5l198-198c1-1 3-1 5-1 1 0 3 0 4 1l254 261c0 0 0 0 0 0 4 5 8 15 8 21l0 181c0 4-2 6-6 6l-181 0c-6 0-16-4-21-8 0 0 0 0 0 0z m395 144c-24 0-44 20-44 44 0 24 20 44 44 44 24 0 44-20 44-44 0-24-20-44-44-44z m0 68c-13 0-24-11-24-24 0-13 11-24 24-24 13 0 24 11 24 24 0 13-11 24-24 24z"/>
<glyph glyph-name="tellephone" unicode="&#37;" d="M412 1c-34 0-79 24-111 45-46 29-95 69-141 116-57 56-103 115-131 166-31 56-36 95-17 115l1 0c0 1 0 1 0 1l76 65c2 1 5 2 7 2 3 0 6-1 7-3l93-110c3-4 4-9 1-13l-46-69 165-165 69 46c4 3 9 2 13-1l110-93c2-1 3-4 3-7 0-2-1-5-2-7l-65-76c0 0 0 0 0 0l-1-1c0 0 0 0 0 0-7-7-18-11-31-11z m-385 428l0 0c0 0 0 0 0 0-7-7-6-21-4-31 3-16 11-37 24-60 27-49 72-107 127-161 46-46 93-85 138-114 42-27 77-42 100-42 7 0 13 2 17 6l0 0 57 67-96 82-69-47c-4-2-10-2-13 2l-177 177c-4 3-4 9-2 13l47 69-82 96z"/>
<glyph glyph-name="thumbs-down" unicode="&#38;" d="M249 0c-1 0-2 0-3 0-11 2-27 7-40 22-15 16-22 41-22 73 0 36 10 79 15 100l-120 0c-19 0-34 4-45 11-12 9-18 21-18 36 0 15 5 27 16 36-8 4-13 9-18 15-5 8-8 17-8 28 0 10 2 19 8 27 3 5 9 10 15 13-8 8-13 20-13 33 0 21 11 36 32 45 1 0 1 0 1 0-5 7-8 16-8 26 0 17 7 29 22 36 15 8 38 11 75 11l101 0c42 0 70-11 94-20 19-7 36-14 57-14l71 0c2 0 3 0 5-1 1-1 11-8 21-25 13-22 19-51 19-86 0-81-27-122-28-124-2-2-4-4-6-4-1 0-78-19-126-64-46-45-71-111-75-154 0-11-10-20-22-20z m-186 272c0-1-8-2-15-6-8-6-12-14-12-24 0-22 23-27 43-27l133 0c3 0 6-1 8-4 2-3 3-6 2-9-1 0-18-61-18-107 0-27 6-47 17-60 9-10 20-14 28-15 1 0 2 1 3 2 2 25 10 56 24 84 14 33 34 61 57 82 21 21 50 39 86 53 20 8 37 13 44 15 2 4 7 13 11 25 5 17 12 46 12 85 0 38-8 62-15 75-6 9-11 15-14 17l-67 0c-25 0-44 7-64 15-24 10-49 19-87 19l-101 0c-33 0-55-3-66-9-9-4-11-9-11-18 0-8 2-13 8-16 5-3 10-4 10-4 6 0 10-5 10-10-1-5-5-10-10-10 0 0-12 0-24-5-13-5-19-14-19-26 0-10 4-17 12-22 7-3 14-4 14-4 5 0 9-5 9-10 0-6-5-10-10-10 0 0-1 0-1 0-3 0-12 0-20-4-10-4-14-12-14-23 0-12 5-20 15-25 9-4 19-5 20-5l0 0c0 0 0 0 0 0 5 0 10-4 10-9 1-5-3-10-8-10z"/>
<glyph glyph-name="thumbs-up" unicode="&#39;" d="M372 0l-101 0c-42 0-70 10-94 20-19 7-36 14-57 14l-71 0c-2 0-3 0-5 1-1 1-11 8-21 25-13 22-19 51-19 85 0 82 27 123 28 125 2 2 4 3 6 4 1 0 78 19 126 64 46 44 71 111 75 154 0 11 10 20 22 20 1 0 2 0 3 0 11-2 27-7 40-22 15-17 22-41 22-74 0-35-10-78-15-99l120 0c19 0 34-4 45-12 12-8 18-20 18-36 0-14-5-26-16-35 8-4 13-9 18-15 5-8 8-17 8-28 0-11-2-20-8-27-3-6-9-10-15-14 8-8 13-19 13-33 0-20-11-36-32-44-1 0-1 0-1 0 5-7 8-16 8-26 0-17-7-29-22-36-15-8-38-11-75-11z m-319 54l67 0c25 0 44-8 64-16 24-9 49-18 87-18l101 0c33 0 55 3 66 8 9 5 11 9 11 19 0 8-2 13-8 16-5 3-10 3-10 4-6 0-10 4-10 10 1 5 5 9 10 9 0 0 12 1 24 6 13 5 19 14 19 25 0 11-4 18-12 22-6 4-14 4-14 4l0 0 1 10 0 10c0 0 1 0 1 0 3 0 12 1 20 5 10 4 14 11 14 23 0 12-5 20-15 25-9 4-19 4-20 4l0 0c-5 0-10 4-10 9-1 6 3 10 8 11 0 0 8 2 15 6 8 6 12 13 12 23 0 23-23 28-43 28l-133 0c-3 0-6 1-8 4-2 2-3 6-2 9 1 0 18 61 18 106 0 28-6 48-17 61-9 10-20 14-28 15-1 0-2-1-3-2-2-26-10-56-24-85-14-32-34-60-57-81-21-21-50-39-86-54-20-8-37-12-44-14-2-5-7-13-11-26-5-17-12-45-12-85 0-37 8-61 15-74 6-9 11-15 14-17z"/>
<glyph glyph-name="time" unicode="&#40;" d="M492 356c-13 30-31 58-55 81-23 24-51 42-81 55-32 13-65 20-100 20-35 0-68-7-100-20-30-13-58-31-81-55-24-23-42-51-55-81-13-32-20-65-20-100 0-35 7-68 20-100 13-30 31-58 55-81 23-24 51-42 81-55 32-13 65-20 100-20 35 0 68 7 100 20 30 13 58 31 81 55 24 23 42 51 55 81 13 32 20 65 20 100 0 35-7 68-20 100z m-236-335c-129 0-235 106-235 235 0 129 106 235 235 235 129 0 235-106 235-235 0-129-106-235-235-235z m131 247l-119 0 0 185c0 6-5 11-11 11-6 0-11-5-11-11l0-196c0-4 2-8 6-10 1-1 3-1 5-1l130 0c6 0 11 5 11 11 0 6-5 11-11 11z"/>
<glyph glyph-name="twitter" unicode="&#41;" d="M493 417c1 3 3 6 4 10 2 8 0 17-7 22-4 3-8 5-13 5-3 0-7-1-10-3-14-8-29-14-45-18-21 18-46 28-74 28-17 0-33-3-47-9-15-6-27-14-38-24-20-21-32-50-32-80 0-1 0-1 0-1-62 9-121 42-161 89-4 5-10 8-16 8 0 0-1 0-1 0-7-1-13-5-16-10-11-18-16-37-16-58 0-16 4-32 10-47 0 0 0 0-1-1-6-3-10-10-10-17l0-1c0-14 3-27 7-40 5-12 12-23 20-33 3-4 6-7 10-10-3-5-4-11-2-17 4-11 9-21 16-31 7-9 15-18 25-25 5-3 9-6 14-9-20-8-42-12-65-12-7 0-14 0-21 1-1 0-1 0-2 0-9 0-17-5-20-13-3-9 1-19 9-25 23-14 48-25 74-33 28-8 57-12 87-12 45 0 87 9 125 26 35 16 66 39 91 67 12 14 23 29 32 44 9 15 17 31 23 48 6 16 11 33 14 50 3 17 5 34 5 50 0 1 0 1 0 2 18 14 33 30 45 47 2 3 4 7 4 12 0 10-8 19-18 20z m-52-69c0-4 0-8 0-12 0-123-92-264-269-264-58 0-108 16-150 42 7-1 15-1 23-1 45 0 86 14 119 39-42 1-77 28-90 65 6-1 12-2 18-2 9 0 18 1 26 3-44 9-77 46-77 92 0 0 0 0 0 1 13-7 27-11 43-12-26 17-43 45-43 77 0 17 5 33 13 47 48-56 120-95 200-99-1 7-2 16-2 24 0 51 37 92 96 92 28 0 51-11 68-29 22 4 43 12 61 22-7-21-22-40-42-51 19 2 38 7 55 15-13-19-30-36-49-49z"/>
<glyph glyph-name="twitter-solid" unicode="&#42;" d="M355 455c30 0 55-12 74-32 24 5 46 13 66 24-8-23-24-43-46-55 21 2 41 8 60 16-14-20-33-38-54-52 1-5 1-9 1-13 0-133-100-286-290-286-64 0-117 17-163 46 8-1 17-2 25-2 49 0 93 16 129 43-46 1-84 30-97 70 6-1 13-2 19-2 10 0 19 1 28 3-48 10-84 50-84 99 0 0 0 1 0 1 15-7 30-12 47-13-27 18-46 49-46 84 0 18 5 36 14 50 52-60 130-102 216-106-2 7-2 17-2 25 0 55 40 100 103 100"/>
<glyph glyph-name="upload-cloud" unicode="&#43;" d="M475 298c-24 23-56 36-90 36-2 0-4 0-6 0-19 55-72 93-131 93-37 0-72-14-98-40-25-24-39-56-41-90 0 0-1 0-1 0-60 0-108-48-108-106 0-28 11-54 31-74 19-20 45-31 73-32 1 0 1 0 2 0l282 0c1 0 2 0 2 0 33 2 63 15 86 38 23 23 36 54 36 87 0 33-13 64-37 88z m-87-191c-1 0-1 0-2 0l-118 0 0 149 49-47c3-2 5-3 8-3 3 0 6 1 8 4 4 4 4 11-1 15l-65 62c-6 6-15 6-20 0l-66-62c-4-4-4-11 0-15 4-5 11-5 15-1l50 48 0-150-139 0c0 0-1 0-1 0-47 1-85 38-85 84 0 46 39 84 87 84 3 0 7 0 11-1 3 0 6 1 9 3 2 2 3 5 3 8 0 1 0 2 0 3 0 1 0 2 0 3 0 63 52 114 117 114 53 0 99-35 112-85 2-6 7-9 12-8 5 0 9 1 13 1 58 0 106-47 106-103 0-56-46-102-103-103z"/>
<glyph glyph-name="user" unicode="&#44;" d="M317 241c43 27 70 79 70 127 0 68-56 144-131 144-75 0-131-76-131-144 0-48 27-100 70-127-101-27-175-119-175-228 0-7 6-13 13-13l446 0c7 0 13 6 13 13 0 109-74 201-175 228z m-276-213c7 114 102 202 215 202 113 0 208-88 215-202l0-5-430 0z m215 465c26 0 53-13 75-35 23-24 35-56 35-88 0-33-12-64-35-88-22-23-49-36-75-36-26 0-53 13-75 36-23 24-35 55-35 88 0 32 12 64 35 88 22 22 49 35 75 35z"/>
<glyph glyph-name="user-circle" unicode="&#45;" d="M492 356c-13 30-31 58-55 81-23 24-51 42-81 55-32 13-65 20-100 20-35 0-68-7-100-20-30-13-58-31-81-55-24-23-42-51-55-81-13-32-20-65-20-100 0-35 7-68 20-100 13-30 31-58 55-81 23-24 51-42 81-55 32-13 65-20 100-20 35 0 68 7 100 20 30 13 58 31 81 55 24 23 42 51 55 81 13 32 20 65 20 100 0 35-7 68-20 100z m-47-239c-4 10-9 20-15 28-10 17-24 30-42 41-16 9-33 16-51 23l-5 2c-5 2-12 0-14-6-2-6 1-12 6-14l5-2c35-14 63-25 83-56 7-10 12-22 17-36-43-46-105-76-173-76-66 0-125 28-168 72 4 16 10 30 16 41 18 30 44 39 77 51 4 2 9 4 14 6 6 2 8 8 6 14-2 6-8 8-14 6-5-2-9-4-14-5-34-13-65-25-87-61-6-10-11-21-15-33-31 40-50 90-50 144 0 129 106 235 235 235 129 0 235-106 235-235 0-52-18-100-46-139z m-184 308c-28 0-54-12-73-34-19-22-30-50-30-81 0-30 11-59 30-81 19-22 45-34 73-34 27 0 53 12 72 34 19 22 30 51 30 81 0 31-11 59-30 81-19 22-45 34-72 34z m0-208c-45 0-81 42-81 93 0 52 36 94 81 94 44 0 80-42 80-94 0-51-36-93-80-93z"/>
<glyph glyph-name="user-cross" unicode="&#46;" d="M512 179c0-66-54-120-121-120-67 0-121 54-121 120 0 67 54 121 121 121 67 0 121-54 121-121z m-105 0l42 42c4 4 4 11 0 15-4 4-11 4-15 0l-42-42-42 42c-4 4-11 4-15 0-4-4-4-11 0-15l42-42-42-42c-4-4-4-11 0-15 2-2 5-3 8-3 2 0 5 1 7 3l42 42 42-42c2-2 5-3 7-3 3 0 6 1 8 3 4 4 4 11 0 15z m39 143c-7 24-17 45-31 65-14 20-31 37-50 51-19 15-41 26-63 34-24 8-49 12-74 12-31 0-61-6-89-18-27-11-51-28-72-49-21-21-38-45-49-72-12-28-18-58-18-89 0-31 6-61 18-89 11-27 28-51 49-72 21-21 45-38 72-49 28-12 58-18 89-18 31 0 61 6 90 18 5 2 8 9 6 14-3 6-9 8-15 6-25-11-53-17-81-17-60 0-113 26-151 66 3 13 8 23 13 32 16 26 38 35 67 45 4 2 8 4 13 5 5 2 8 9 6 14-2 6-8 9-14 6-4-1-9-3-13-4-30-12-58-22-78-55-4-7-7-15-10-23-25 34-40 76-40 121 0 114 93 207 207 207 92 0 171-59 198-147 2-5 8-9 13-7 6 2 9 8 7 13z m-148-23c-1-6 4-11 10-11 6 0 11 4 11 10 0 1 0 1 0 2 0 1 0 2 0 4 0 27-9 53-26 73-18 19-41 30-66 30-24 0-48-11-65-30-17-20-26-46-26-73 0-27 9-53 26-72 17-20 41-31 65-31 8 0 15 1 22 3 6 2 9 7 8 13-2 6-8 9-13 8-6-2-11-3-17-3-38 0-70 37-70 82 0 45 32 82 70 82 39 0 71-37 71-82 0-1 0-2 0-3 0-1 0-1 0-2z"/>
<glyph glyph-name="user-multiple" unicode="&#47;" d="M377 234c-3-1-6-3-9-4-15-5-30-11-42-22-5-4-5-11-1-15 2-2 5-4 8-4 3 0 5 1 7 3 10 8 22 13 36 18 2 1 6 2 9 4 5 2 8 8 6 14-2 5-9 8-14 6z m-177-26c-12 11-27 17-42 22-3 1-6 3-9 4-5 2-12-1-14-6-2-6 1-12 6-14 3-2 7-3 10-4 13-5 26-10 35-18 2-2 5-3 7-3 3 0 6 2 8 4 4 4 4 11-1 15z m113 113c-14 16-32 25-52 25-20 0-39-9-53-25-13-15-21-36-21-58 0-21 8-42 21-57 14-16 33-25 53-25 20 0 38 9 52 25 14 15 21 36 21 57 0 22-7 43-21 58z m-52-118c-29 0-52 27-52 60 0 34 23 61 52 61 29 0 52-27 52-61 0-33-23-60-52-60z m225 89c0 38-28 69-62 69-34 0-61-31-61-69 0-38 27-68 61-68 34 0 62 30 62 68z m-62-47c-22 0-40 21-40 47 0 26 18 48 40 48 22 0 40-22 40-48 0-26-18-47-40-47z m-261 47c0 38-27 69-61 69-34 0-62-31-62-69 0-38 28-68 62-68 34 0 61 30 61 68z m-61-47c-22 0-40 21-40 47 0 26 18 48 40 48 22 0 40-22 40-48 0-26-18-47-40-47z m390 111c-13 30-31 58-55 81-23 24-51 42-81 55-32 13-65 20-100 20-35 0-68-7-100-20-30-13-58-31-81-55-24-23-42-51-55-81-13-32-20-65-20-100 0-35 7-68 20-100 13-30 31-58 55-81 23-24 51-42 81-55 32-13 65-20 100-20 35 0 68 7 100 20 30 13 58 31 81 55 24 23 42 51 55 81 13 32 20 65 20 100 0 35-7 68-20 100z m-77-273c-5 22-12 40-21 54-18 29-45 40-73 51l-4 1c-5 2-12-1-14-6-2-6 1-12 6-14l4-2c27-10 48-18 63-42 9-14 15-33 20-57-39-29-88-47-140-47-49 0-95 16-132 42 3 27 9 48 18 62 14 23 33 30 58 40 4 1 7 2 11 4 6 2 8 8 6 14-2 5-8 8-14 6-3-2-7-3-11-4-26-10-51-20-68-49-9-14-16-34-20-58-36 30-63 72-75 120 9 6 19 10 31 15l3 1c6 2 8 8 6 14-2 5-8 8-14 6l-2-1c-10-4-20-8-29-13-2 12-3 24-3 36 0 129 106 235 235 235 129 0 235-106 235-235 0-10-1-20-2-29-5 2-10 4-15 6l-3 1c-6 2-12-1-14-6-2-6 0-12 6-14l3-1c7-3 13-6 19-8-11-48-36-90-70-122z"/>
<glyph glyph-name="user-plus" unicode="&#58;" d="M512 179c0-66-54-120-121-120-67 0-121 54-121 120 0 67 54 121 121 121 67 0 121-54 121-121z m-51 11l-59 0 0 59c0 6-5 11-10 11-6 0-11-5-11-11l0-59-59 0c-6 0-11-5-11-10 0-6 5-11 11-11l59 0 0-59c0-6 5-11 11-11 5 0 10 5 10 11l0 59 59 0c6 0 11 5 11 11 0 5-5 10-11 10z m-15 132c-7 24-17 45-31 65-14 20-31 37-50 51-19 15-41 26-63 34-24 8-49 12-74 12-31 0-61-6-89-18-27-11-51-28-72-49-21-21-38-45-49-72-12-28-18-58-18-89 0-31 6-61 18-89 11-27 28-51 49-72 21-21 45-38 72-49 28-12 58-18 89-18 31 0 61 6 90 18 5 2 8 9 6 14-3 6-9 8-15 6-25-11-53-17-81-17-60 0-113 26-151 66 3 13 8 23 13 32 16 26 38 35 67 45 4 2 8 4 13 5 5 2 8 9 6 14-2 6-8 9-14 6-4-1-9-3-13-4-30-12-58-22-78-55-4-7-7-15-10-23-25 34-40 76-40 121 0 114 93 207 207 207 92 0 171-59 198-147 2-5 8-9 13-7 6 2 9 8 7 13z m-148-23c-1-6 4-11 10-11 6 0 11 4 11 10 0 1 0 1 0 2 0 1 0 2 0 4 0 27-9 53-26 73-18 19-41 30-66 30-24 0-48-11-65-30-17-20-26-46-26-73 0-27 9-53 26-72 17-20 41-31 65-31 8 0 15 1 22 3 6 2 9 7 8 13-2 6-8 9-13 8-6-2-11-3-17-3-38 0-70 37-70 82 0 45 32 82 70 82 39 0 71-37 71-82 0-1 0-2 0-3 0-1 0-1 0-2z"/>
<glyph glyph-name="user-two" unicode="&#59;" d="M375 377c-10 0-18-1-23-2-4 1-12 2-22 2-18 0-31-4-39-13-15-15-16-28-17-38 0-7-1-11-5-16-7-7-19-8-23-8-1 0-1 0-2 0-4 1-8-1-10-5-2-3-2-8 1-11 0-1 6-9 16-16 0-2 1-3 2-5 0-1 10-15 29-21 12-31 39-52 70-52 31 0 59 21 71 53 17 6 26 19 26 20 1 1 2 2 2 3 12 8 19 17 19 18 3 3 3 8 1 11-2 4-6 6-11 5 0 0 0 0-1 0-4 0-16 1-23 8-5 5-5 9-5 16-1 10-2 23-17 38-8 9-21 13-39 13z m62-92c-2-1-4-2-6-3-4-1-7-6-7-10 0-1 0-1 0-2-3-2-7-4-12-6-4 0-7-3-8-7-7-26-28-43-52-43-23 0-44 17-52 43-1 4-4 6-8 7-5 1-9 3-13 5 1 1 1 2 1 3 0 5-3 9-7 11-2 0-3 1-5 2 6 2 11 5 16 10 10 11 11 21 12 30 0 8 1 15 10 24 4 4 13 7 24 7 10 0 19-2 20-2 2-1 3-1 5 0 1 0 10 2 20 2 11 0 20-3 24-7 9-9 10-16 10-24 1-9 2-19 12-30 5-5 10-8 16-10z m-298 82c-21 0-41-9-56-26-15-17-23-39-23-62 0-23 8-46 23-62 15-17 35-27 56-27 22 0 42 10 57 27 14 16 23 39 23 62 0 23-9 45-23 62-15 17-35 26-57 26z m0-155c-31 0-57 30-57 67 0 37 26 67 57 67 32 0 58-30 58-67 0-37-26-67-58-67z m157-8c-6-2-9-3-13-4-5-1-10-3-17-6-6-3-8-9-5-15 2-4 5-6 9-6 2 0 4 1 5 1 6 3 9 4 14 5 4 1 8 3 15 5 5 2 8 9 6 14-2 6-9 8-14 6z m196 152c-13 30-31 58-55 81-23 24-51 42-81 55-32 13-65 20-100 20-35 0-68-7-100-20-30-13-58-31-81-55-24-23-42-51-55-81-13-32-20-65-20-100 0-35 7-68 20-100 13-30 31-58 55-81 23-24 51-42 81-55 32-13 65-20 100-20 35 0 68 7 100 20 30 13 58 31 81 55 24 23 42 51 55 81 13 32 20 65 20 100 0 35-7 68-20 100z m-18-187c-17 17-38 25-61 34l-3 1c-6 2-12 0-14-6-2-5 1-12 6-14l4-1c24-10 43-17 58-35-32-62-92-108-163-122-2 60-11 99-28 126-19 29-45 40-74 51l-3 1c-6 2-12 0-14-6-2-5 0-12 6-14l3-1c28-11 49-19 64-42 15-24 23-62 25-118-8-1-16-2-24-2-96 0-179 59-215 141 11 8 23 13 37 18 4 1 8 3 12 4 5 2 8 9 6 14-2 6-9 8-14 6-4-1-8-3-11-4-13-5-26-10-38-17-7 23-12 48-12 73 0 129 106 235 235 235 129 0 235-106 235-235 0-31-6-60-17-87z"/>
<glyph glyph-name="video" unicode="&#60;" d="M487 459l-462 0c-14 0-25-11-25-25l0-356c0-14 11-25 25-25l462 0c14 0 25 11 25 25l0 356c0 14-11 25-25 25z m4-381c0-2-2-3-4-3l-462 0c-2 0-4 1-4 3l0 356c0 2 2 3 4 3l462 0c2 0 4-1 4-3z m-132 187l-161 92c-3 2-7 2-11 0-3-1-5-5-5-9l0-185c0-4 2-7 5-9 2-1 4-1 6-1 2 0 4 0 5 1l161 92c3 2 5 6 5 10 0 4-2 7-5 9z m-155-83l0 148 128-74z m-141 238l-11 0c-5 0-10-5-10-11l0-10c0-6 5-11 10-11l11 0c6 0 11 5 11 11l0 10c0 6-5 11-11 11z m67 0l-10 0c-6 0-11-5-11-11l0-10c0-6 5-11 11-11l10 0c6 0 11 5 11 11l0 10c0 6-5 11-11 11z m57-32l11 0c6 0 10 5 10 11l0 10c0 6-4 11-10 11l-11 0c-6 0-11-5-11-11l0-10c0-6 5-11 11-11z m67 0l11 0c6 0 11 5 11 11l0 10c0 6-5 11-11 11l-11 0c-5 0-10-5-10-11l0-10c0-6 5-11 10-11z m68 0l10 0c6 0 11 5 11 11l0 10c0 6-5 11-11 11l-10 0c-6 0-11-5-11-11l0-10c0-6 5-11 11-11z m78 32l-11 0c-6 0-11-5-11-11l0-10c0-6 5-11 11-11l11 0c6 0 10 5 10 11l0 10c0 6-4 11-10 11z m67 0l-11 0c-5 0-10-5-10-11l0-10c0-6 5-11 10-11l11 0c6 0 11 5 11 11l0 10c0 6-5 11-11 11z m-404-299l-11 0c-5 0-10-4-10-10l0-11c0-6 5-10 10-10l11 0c6 0 11 4 11 10l0 11c0 6-5 10-11 10z m67 0l-10 0c-6 0-11-4-11-10l0-11c0-6 5-10 11-10l10 0c6 0 11 4 11 10l0 11c0 6-5 10-11 10z m68 0l-11 0c-6 0-11-4-11-10l0-11c0-6 5-10 11-10l11 0c6 0 10 4 10 10l0 11c0 6-4 10-10 10z m67 0l-11 0c-5 0-10-4-10-10l0-11c0-6 5-10 10-10l11 0c6 0 11 4 11 10l0 11c0 6-5 10-11 10z m67 0l-10 0c-6 0-11-4-11-10l0-11c0-6 5-10 11-10l10 0c6 0 11 4 11 10l0 11c0 6-5 10-11 10z m68 0l-11 0c-6 0-11-4-11-10l0-11c0-6 5-10 11-10l11 0c6 0 10 4 10 10l0 11c0 6-4 10-10 10z m67 0l-11 0c-5 0-10-4-10-10l0-11c0-6 5-10 10-10l11 0c6 0 11 4 11 10l0 11c0 6-5 10-11 10z"/>
<glyph glyph-name="wallet" unicode="&#61;" d="M505 428c-5 7-15 16-36 19 0 0 0 0 0 0l-364 48c-11 2-22 0-31-7-8-7-13-18-13-30l0-56-17 0c-24 0-42-19-42-42l0-301c0-23 19-43 42-43l424 0c23 0 42 20 42 43l0 352c0 1 0 9-5 17z m-423 30c0 6 2 11 5 14 4 3 9 4 14 3 1 0 1 0 1 0l364-48c17-3 22-10 23-13-2-8-15-12-38-12l-369 0z m408-399c0-12-10-22-22-22l-424 0c-12 0-22 10-22 22l0 301c0 12 10 21 22 21l407 0c15 0 26 2 34 4 2 1 3 2 5 2z m-415 182c-17 0-31-15-31-32 0-17 14-31 31-31 17 0 31 14 31 31 0 17-14 32-31 32z m0-43c-6 0-11 5-11 11 0 6 5 11 11 11 6 0 11-5 11-11 0-6-5-11-11-11z"/>
<glyph glyph-name="watsapp" unicode="&#62;" d="M511 263c0-138-112-249-250-249-44 0-86 11-122 31l-138-44 45 133c-23 38-36 82-36 129 0 137 112 248 251 248 138 0 250-111 250-248z m-250 209c-117 0-211-94-211-209 0-46 15-89 40-123l-26-78 81 26c33-22 73-35 116-35 116 0 210 94 210 210 0 115-94 209-210 209z m126-267c-1 3-5 4-12 7-6 3-36 18-42 20-5 2-9 3-13-3-4-6-16-20-20-24-3-4-7-4-13-1-6 3-26 9-50 30-18 16-30 36-34 42-3 6 0 10 3 13 3 2 6 7 9 10 3 4 4 6 6 11 2 4 1 7 0 10-2 3-14 33-19 45-5 13-10 11-14 11-4 0-8 0-12 0-4 0-11-1-16-7-6-7-22-21-22-51 0-30 22-59 25-63 4-4 43-68 105-92 63-25 63-17 74-16 11 1 37 15 42 29 5 15 5 27 3 29z"/>
<glyph glyph-name="winner-cup" unicode="&#63;" d="M395 367c-5 0-10 4-10 10l0 114-260 0 0-114c0-6-4-10-10-10-6 0-10 4-10 10l0 124c0 6 4 10 10 10l280 0c6 0 11-4 11-10l0-124c0-6-5-10-11-10z m-140-158c-20 0-40 5-59 14-18 9-34 21-48 37-28 32-43 74-43 119 0 6 4 10 10 10 6 0 10-4 10-10 0-82 59-149 130-149 72 0 130 67 130 149 0 6 5 10 10 10 6 0 11-4 11-10 0-45-16-87-44-119-14-16-30-28-48-37-19-9-38-14-59-14z m142 122c-6 0-10 5-10 11 0 5 4 10 10 10 22 0 44 13 62 38 14 21 24 47 26 73l-88 0c-6 0-10 4-10 10 0 6 4 10 10 10l99 0c6 0 10-4 10-10 0-33-11-68-31-95-10-14-21-25-34-33-14-9-29-14-44-14z m-282 0c-15 0-30 5-44 14-13 8-24 19-34 33-20 27-31 62-31 95 0 6 4 10 10 10l99 0c6 0 10-4 10-10 0-6-4-10-10-10l-88 0c2-26 12-52 26-73 18-25 40-38 62-38 6 0 10-5 10-10 0-6-4-11-10-11z m140-248c-5 0-10 5-10 11l0 117c0 6 5 11 10 11 6 0 10-5 10-11l0-117c0-6-4-11-10-11z m124-82l-246 0c-15 0-27 13-27 30 0 16 12 30 27 30l246 0c15 0 27-14 27-30 0-17-12-30-27-30z m-246 39c-3 0-6-4-6-9 0-6 3-10 6-10l246 0c3 0 6 4 6 10 0 5-3 9-6 9z m177 0l-108 0c-14 0-26 14-26 31 0 16 12 30 26 30l108 0c14 0 26-14 26-30 0-17-12-31-26-31z m-108 40c-3 0-6-4-6-9 0-6 3-10 6-10l108 0c3 0 6 4 6 10 0 5-3 9-6 9z"/>
<glyph glyph-name="youtube" unicode="&#64;" d="M256 65l0 0c-123 0-179 10-181 10-21 4-45 23-53 42-1 2-20 47-20 139 0 92 19 137 20 139 8 19 32 38 53 42 2 0 58 10 181 10l0 0c123 0 179-10 181-10 21-4 45-23 53-42 1-2 20-47 20-139 0-92-19-137-20-139-8-19-32-38-53-42-2 0-58-10-181-10z m0 362c-121 0-177-10-178-10-14-3-32-17-37-31-1 0-19-43-19-130 0-87 18-130 19-130 5-14 23-28 37-31 1 0 57-10 178-10l0 0c121 0 177 10 178 10 14 3 32 17 37 31 1 0 19 43 19 130 0 87-18 130-19 130-5 14-23 28-37 31-1 0-57 10-178 10z m-59-270c-2 0-3 1-5 2-3 1-5 5-5 9l0 176c0 4 2 7 5 9 3 2 7 2 10 0l152-84c3-2 5-5 5-9 0-3-2-7-5-9l-152-92c-1-1-3-2-5-2z m10 170l0-141 121 74z"/>
<glyph glyph-name="youtube-solid" unicode="&#91;" d="M490 412c-3 11-12 19-23 20-70 10-141 15-211 15-70 0-141-5-211-15-11-1-20-9-23-20-27-105-27-207 0-312 3-11 12-19 23-20 70-10 141-15 211-15 70 0 141 5 211 15 11 1 20 9 23 20 27 105 27 207 0 312z m-145-176l-103-79c-5-3-10-5-15-5-4 0-8 1-11 2-9 5-14 13-14 23l0 158c0 10 5 18 14 23 8 4 18 3 26-3l103-79c6-5 10-12 10-20 0-8-4-15-10-20z"/>
<glyph glyph-name="readmore" unicode="&#93;" d="M492 157c13 32 20 65 20 99 0 35-7 68-20 100-13 30-31 58-55 81-23 24-51 42-81 55-32 13-65 20-100 20-35 0-68-7-100-20-30-13-58-31-81-55-24-23-42-51-55-81-13-32-20-65-20-100 0-29 5-58 14-85 2-5 4-10 6-15 4-10 9-20 15-29 11-19 24-37 40-52 23-24 51-42 81-55 32-13 65-20 100-20 35 0 68 7 100 20 30 13 58 31 81 55 17 17 32 36 43 58 5 7 9 15 12 23 0 1 0 1 0 1z m-1 99c0-129-106-235-235-235-129 0-235 106-235 235 0 129 106 235 235 235 129 0 235-106 235-235z m-116 18l-101 0 0 23c0 0 0 0 0 0l0 78c0 10-8 18-18 18l0 0c-10 0-18-8-18-18l0-101-101 0c-10 0-18-8-18-18l0 0c0-10 8-18 18-18l101 0 0-101c0-10 8-18 18-18l0 0c10 0 18 8 18 18l0 101 23 0c0 0 0 0 0 0l78 0c10 0 18 8 18 18l0 0c0 10-8 18-18 18z"/>
</font>
</defs>
</svg>
